# Alias OBJ Model File
# Exported from SketchUp, (c) 2000-2012 Trimble Navigation Limited
# File units = meters

mtllib Yard_1.mtl

g Mesh1 Group1 Model

usemtl FrontColor
v -1 -1 1
vt -1.46843e-26 2.38742e-12
vn 7.62596e-15 -1 1.01018e-14
v -1 -1 -1
vt -3.18323e-12 78.7402
v 1 -1 -1
vt -78.7402 78.7402
v 1 -1 1
vt -78.7402 2.38742e-12
f 1/1/1 2/2/1 3/3/1 4/4/1 

v -1 1 1
vn -1 -1.18045e-14 -4.00917e-14
v -1 1 0.88
vt -4.72441 78.7402
v -1 -0.946 0.88
vt -4.72441 2.12598
v -1 -0.946 -1
vt -78.7402 2.12598
vt -78.7402 -3.11732e-28
vt -2.38742e-12 1.92557e-12
f 5/2/2 6/5/2 7/6/2 8/7/2 2/8/2 1/9/2 

vt -1.06581e-12 4.72441
vn 4.8729e-15 1 -9.02389e-15
vt -1.29319e-12 2.47269e-12
v 1 1 1
vt 78.7402 2.47269e-12
v 1 1 0.88
vt 78.7402 4.72441
f 6/10/3 5/11/3 9/12/3 10/13/3 

vt -9.09495e-13 78.7402
vn 1.11743e-15 2.69338e-14 1
v -0.68 0.0900853 1
vt 12.5984 42.9167
vt 78.7402 78.7402
f 5/14/4 11/15/4 9/16/4

v -0.68 -0.865915 1
vt 12.5984 5.27895
f 5/14/4 12/17/4 11/15/4

vt 2.66777e-27 1.92557e-12
f 12/17/4 5/14/4 1/18/4

v 0.68 -0.865915 1
vt 66.1417 5.27895
f 1/18/4 13/19/4 12/17/4

vt 78.7402 1.47793e-12
f 4/20/4 13/19/4 1/18/4

f 13/19/4 4/20/4 9/16/4

vt -3.17096e-12 78.7402
vn -1 -8.9215e-15 1.55893e-16
v 1 -0.946 0.88
v 1 -0.946 -1
vt -78.7402 1.22309e-12
vt -2.37515e-12 7.75449e-13
f 9/21/5 10/5/5 14/6/5 15/7/5 3/22/5 4/23/5 

vn -7.76072e-29 -3.85811e-14 -1
v 0.68 -0.865915 0.88
vt -66.1417 5.27895
f 14/7/6 16/24/6 10/3/6

v -0.68 -0.865915 0.88
vt -12.5984 5.27895
f 16/24/6 14/7/6 17/25/6

vt -2.27374e-13 2.12598
f 7/26/6 17/25/6 14/7/6

vt 6.82121e-13 78.7402
f 17/25/6 7/26/6 6/27/6

v -0.68 0.0900853 0.88
vt -12.5984 42.9167
f 17/25/6 6/27/6 18/28/6

v 0.68 0.0900853 0.88
vt -66.1417 42.9167
f 18/28/6 6/27/6 19/29/6

f 19/29/6 6/27/6 10/3/6

f 10/3/6 16/24/6 19/29/6

vt -4.72441 42.9167
vn -1 0 -0
vt -4.72441 5.27895
vt 2.27374e-13 5.27895
v 0.68 0.0900853 1
vt -3.41061e-13 42.9167
f 19/30/7 16/31/7 13/32/7 20/33/7 

vt 66.1417 -2.51688e-13
vn -4.06407e-16 1 -4.60595e-15
vt 66.1417 4.72441
vt 12.5984 4.72441
vt 12.5984 -1.16118e-12
f 13/34/8 16/35/8 17/36/8 12/37/8 

vt 4.72441 5.27895
vn 1 0 -0
vt 4.72441 42.9167
vt 3.41061e-13 42.9167
vt -1.13687e-12 5.27895
f 17/38/9 18/39/9 11/40/9 12/41/9 

vt -66.1417 4.72441
vn 0 -1 -0
vt -66.1417 3.41061e-13
vt -12.5984 3.41061e-13
vt -12.5984 4.72441
f 19/42/10 20/43/10 11/44/10 18/45/10 

vt 66.1417 42.9167
f 20/46/4 9/16/4 11/15/4

f 13/19/4 9/16/4 20/46/4

vt 2.27374e-13 4.72441
vn -6.63404e-31 1 1.53178e-14
v 0.5 -0.946 -1
vt 59.0551 78.7402
v -0.5 -0.946 -1
vt 19.685 78.7402
vt 3.18323e-12 78.7402
f 7/47/11 14/13/11 15/16/11 21/48/11 22/49/11 8/50/11 

