# Alias OBJ Model File
# Exported from SketchUp, (c) 2000-2012 Trimble Navigation Limited
# File units = meters

mtllib Yard_3.mtl

g Mesh1 Group1 Model

usemtl FrontColor
v 1 -1 1
vt -9.09495e-13 1.7053e-12
vn 5.9243e-15 -1 -5.63098e-15
v -1.36 -1 1
vt -92.9134 1.7053e-12
v -1.36 -1 -1
vt -92.9134 78.7402
v 1 -1 -1
vt -9.09495e-13 78.7402
f 1/1/1 2/2/1 3/3/1 4/4/1 

vt 9.09495e-13 5.47118e-13
vn 2.14126e-15 7.58007e-15 1
v -0.99 -0.804 1
vt 78.3465 7.71654
vt 92.9134 1.44344e-26
f 1/5/2 5/6/2 2/7/2

v -0.49 -0.804 1
vt 58.6614 7.71654
f 5/6/2 1/5/2 6/8/2

v 1 1 1
vt 2.27374e-13 78.7402
f 7/9/2 6/8/2 1/5/2

v -0.49 -0.154 1
vt 58.6614 33.3071
f 8/10/2 6/8/2 7/9/2

vt 8.10019e-13 7.71654
vn -1 2.1065e-14 -7.7937e-28
vt 1.81899e-12 33.3071
v -0.49 -0.154 0.88
vt 4.72441 33.3071
v -0.49 -0.804 0.88
vt 4.72441 7.71654
f 6/11/3 8/12/3 9/13/3 10/14/3 

vt 2.1178e-12 40.679
vn -0.991445 -0.130526 5.05022e-15
v -0.498519 -0.0892952 1
vt 2.21898e-12 43.2484
vn -0.965926 -0.258819 1.00777e-14
v -0.498519 -0.0892952 0.88
vt 4.72441 43.2484
vt 4.72441 40.679
f 8/15/4 11/16/5 12/17/5 9/18/4 

vt 58.9968 35.8545
f 11/19/2 8/10/2 7/9/2

v -0.523494 -0.029 1
vt 59.9801 38.2283
f 13/20/2 11/19/2 7/9/2

vt 2.87204e-12 55.7024
vt 2.9803e-12 58.2718
vn -0.866025 -0.5 1.95048e-14
v -0.523494 -0.029 0.88
vt 4.72441 58.2718
vt 4.72441 55.7024
f 11/21/5 13/22/6 14/23/6 12/24/5 

vt 3.8059e-12 66.8421
v -0.563223 0.0227767 1
vt 3.93087e-12 69.4115
vn -0.707107 -0.707107 2.75753e-14
v -0.563223 0.0227767 0.88
vt 4.72441 69.4115
vt 4.72441 66.8421
f 13/25/6 15/26/7 16/27/7 14/28/6 

vt 61.5442 40.2668
f 15/29/2 13/20/2 7/9/2

v -0.615 0.0625064 1
vt 63.5827 41.831
f 17/30/2 15/29/2 7/9/2

vt 5.2165e-12 73.3392
vt 5.38404e-12 75.9086
vn -0.5 -0.866025 3.37666e-14
v -0.615 0.0625064 0.88
vt 4.72441 75.9086
vt 4.72441 73.3392
f 15/31/7 17/32/8 18/33/8 16/34/7 

vt 8.13761e-12 74.7507
v -0.675295 0.0874815 1
vt 8.39657e-12 77.3202
vn -0.258819 -0.965926 3.75759e-14
v -0.675295 0.0874815 0.88
vt 4.72441 77.3202
vt 4.72441 74.7507
f 17/35/8 19/36/9 20/37/9 18/38/8 

vt 65.9565 42.8142
f 19/39/2 17/30/2 7/9/2

v -0.74 0.096 1
vt 68.5039 43.1496
f 21/40/2 19/39/2 7/9/2

vt 2.16375e-11 70.9806
vt 2.24029e-11 73.55
vn -0.130526 -0.991445 3.84891e-14
v -0.74 0.096 0.88
vt 4.72441 73.55
vt 4.72441 70.9806
f 19/41/9 21/42/10 22/43/10 20/44/9 

vt 1.79731e-11 -62.2857
vn 0.130526 -0.991445 3.84427e-14
v -0.804705 0.0874815 1
vt 1.87518e-11 -64.8551
vn 0.258819 -0.965926 3.75525e-14
v -0.804705 0.0874815 0.88
vt -4.72441 -64.8551
vt -4.72441 -62.2857
f 21/45/11 23/46/12 24/47/12 22/48/11 

v -1.36 1 1
vt 92.9134 78.7402
vt 71.0514 42.8142
f 21/40/2 25/49/2 23/50/2

f 25/49/2 21/40/2 7/9/2

v -1.36 1 0.88
vt 92.9134 4.72441
vn -5.812e-15 1 6.01593e-15
vt 92.9134 2.5769e-12
vt -2.30264e-13 2.97481e-12
v 1 1 0.88
vt -2.30264e-13 4.72441
f 26/51/13 25/52/13 7/53/13 27/54/13 

vt 1.94033e-12 78.7402
vn -1 2.06039e-14 -1.75294e-15
vt 4.72441 78.7402
v -1.36 -0.804 0.88
v -1.36 -0.804 -1
vt 78.7402 7.71654
vt 78.7402 -1.47384e-12
vt 1.54243e-12 -1.91438e-12
f 25/55/14 26/56/14 28/14/14 29/57/14 3/58/14 2/59/14 

vt -58.9968 35.8545
vn -1.84301e-15 -3.89036e-14 -1
vt -59.9801 38.2283
vt -61.5442 40.2668
vt -63.5827 41.831
vt -65.9565 42.8142
vt -68.5039 43.1496
vt -71.0514 42.8142
v -0.865 0.0625064 0.88
vt -73.4252 41.831
v -0.916777 0.0227767 0.88
vt -75.4636 40.2668
v -0.956506 -0.029 0.88
vt -77.0278 38.2283
v -0.981481 -0.0892952 0.88
vt -78.0111 35.8545
v -0.99 -0.154 0.88
vt -78.3465 33.3071
v -0.99 -0.804 0.88
vt -78.3465 7.71654
vt -92.9134 7.71654
vt -2.18667e-13 78.7402
v 1 -0.946 0.88
vt -9.00788e-13 2.12598
v -4.95159e-14 -0.946 0.88
vt -39.3701 2.12598
v -2.06501e-14 0.796 0.88
vt -39.3701 70.7087
v -0.12 0.796 0.88
vt -44.0945 70.7087
v -0.12 -0.804 0.88
vt -44.0945 7.71654
vt -58.6614 7.71654
vt -58.6614 33.3071
f 12/60/15 14/61/15 16/62/15 18/63/15 20/64/15 22/65/15 24/66/15 30/67/15 31/68/15 32/69/15 33/70/15 34/71/15 35/72/15 28/73/15 26/3/15 27/74/15 36/75/15 37/76/15 38/77/15 39/78/15 40/79/15 10/80/15 9/81/15 

vt 4.51339e-12 -49.2586
v -0.865 0.0625064 1
vt 4.76525e-12 -51.828
vn 0.5 -0.866025 3.37666e-14
vt -4.72441 -51.828
vt -4.72441 -49.2586
f 23/82/12 41/83/16 30/84/16 24/85/12 

vt 73.4252 41.831
f 23/50/2 25/49/2 41/86/2

v -0.916777 0.0227767 1
vt 75.4636 40.2668
f 41/86/2 25/49/2 42/87/2

v -0.956506 -0.029 1
vt 77.0278 38.2283
f 42/87/2 25/49/2 43/88/2

v -0.981481 -0.0892952 1
vt 78.0111 35.8545
f 43/88/2 25/49/2 44/89/2

v -0.99 -0.154 1
vt 78.3465 33.3071
f 44/89/2 25/49/2 45/90/2

f 45/90/2 25/49/2 5/6/2

f 25/49/2 2/7/2 5/6/2

vt -1.80478e-12 33.3071
vn 1 -2.12811e-14 7.86178e-28
vt -8.10019e-13 7.71654
vt -4.72441 7.71654
vt -4.72441 33.3071
f 45/91/17 5/92/17 35/93/17 34/94/17 

vt 78.3465 4.72441
vn -6.24691e-15 1 -1.55758e-14
vt 78.3465 6.89827e-13
vt 58.6614 6.89827e-13
vt 58.6614 4.72441
vt 44.0945 4.72441
v -0.12 -0.804 -1
vt 44.0945 78.7402
f 35/95/18 5/96/18 6/97/18 10/98/18 40/99/18 46/100/18 29/49/18 28/51/18 

vn -1 2.1423e-15 -5.38192e-15
v -0.12 -0.384 0.38292
vt 24.2945 24.252
f 46/57/19 40/14/19 47/101/19

v -0.12 -0.183082 0.49892
vt 19.7276 32.1621
f 47/101/19 40/14/19 48/102/19

vt 4.72441 70.7087
f 39/103/19 48/102/19 40/14/19

v -0.12 0.0178358 0.38292
vt 24.2945 40.0723
f 48/102/19 39/103/19 49/104/19

v -0.12 0.796 -1
vt 78.7402 70.7087
f 50/105/19 49/104/19 39/103/19

v -0.12 0.0178358 0.15092
vt 33.4284 40.0723
f 51/106/19 49/104/19 50/105/19

v -4.37428e-14 0.0178358 0.15092
vt -39.3701 33.4284
vn -7.21911e-15 -1 -1.92925e-14
v -4.37428e-14 0.0178358 0.38292
vt -39.3701 24.2945
vt -44.0945 24.2945
vt -44.0945 33.4284
f 52/107/20 53/108/20 49/109/20 51/110/20 

vt -33.4284 40.0723
vn 1 -7.42179e-15 8.63921e-15
v -2.06501e-14 0.796 -1
vt -78.7402 70.7087
vt -24.2945 40.0723
f 52/111/21 54/112/21 53/113/21

v -4.37428e-14 -0.183082 0.0349195
vt -37.9953 32.1621
f 55/114/21 54/112/21 52/111/21

v -3.21965e-14 0.0178358 -0.47708
vt -58.1528 40.0723
f 56/115/21 54/112/21 55/114/21

v -3.79696e-14 0.0178358 -0.70908
vt -67.2866 40.0723
f 57/116/21 54/112/21 56/115/21

v -3.21965e-14 -0.0703594 -0.76
vt -69.2913 36.6
f 58/117/21 54/112/21 57/116/21

v -2.64233e-14 -0.183082 -0.82508
vt -71.8536 32.1621
f 59/118/21 54/112/21 58/117/21

v -2.06501e-14 -0.946 -1
vt -78.7402 2.12598
f 60/119/21 54/112/21 59/118/21

vn -2.66634e-15 -1.44066e-14 -1
v 1 -0.946 -1
vt -6.99547e-13 2.12598
vt -6.99547e-13 2.12913e-12
vt -92.9134 1.57491e-12
f 60/76/22 61/120/22 4/121/22 3/122/22 29/73/22 46/79/22 50/78/22 54/77/22 

vt 39.3701 4.72441
vn -7.33191e-17 1 1.53388e-14
vt 9.09339e-13 4.72441
vt 9.09339e-13 78.7402
vt 39.3701 78.7402
f 37/123/23 36/124/23 61/125/23 60/126/23 

vt -1.7053e-12 5.47118e-13
vn 1 -8.9215e-15 1.55893e-16
vt -78.7402 9.9476e-13
vt -4.72441 2.12598
vt -4.72441 78.7402
vt -2.50111e-12 78.7402
f 1/127/24 4/128/24 61/119/24 36/129/24 27/130/24 7/131/24 

v -4.37428e-14 -0.384 0.38292
vt -24.2945 24.252
f 60/119/21 62/132/21 37/129/21

v -4.37428e-14 -0.384 0.15092
vt -33.4284 24.252
f 63/133/21 62/132/21 60/119/21

vt 39.3701 24.2945
vn 7.21911e-15 1 1.86701e-14
vt 39.3701 33.4284
v -0.12 -0.384 0.15092
vt 44.0945 33.4284
vt 44.0945 24.2945
f 62/134/25 63/135/25 64/136/25 47/137/25 

vt 39.3701 37.717
vn 3.61638e-15 0.5 0.866025
vt 39.3701 46.8509
v -0.12 -0.183082 0.0349195
vt 44.0945 46.8509
vt 44.0945 37.717
f 63/138/26 55/139/26 65/140/26 64/141/26 

f 55/114/21 63/133/21 60/119/21

v -2.64233e-14 -0.384 -0.47708
vt -58.1528 24.252
f 66/142/21 55/114/21 60/119/21

v -2.64233e-14 -0.183082 -0.36108
vt -53.5858 32.1621
f 67/143/21 55/114/21 66/142/21

f 67/143/21 56/115/21 55/114/21

vt -39.3701 63.78
vn -3.61309e-15 -0.5 -0.866025
vt -39.3701 54.6461
v -0.12 -0.183082 -0.36108
vt -44.0945 54.6461
v -0.12 0.0178358 -0.47708
vt -44.0945 63.78
f 56/144/27 67/145/27 68/146/27 69/147/27 

vt -39.3701 1.06029
vn 3.61638e-15 0.5 -0.866025
vt -39.3701 -8.07357
v -0.12 -0.384 -0.47708
vt -44.0945 -8.07357
vt -44.0945 1.06029
f 67/148/28 66/149/28 70/150/28 68/151/28 

vt 39.3701 58.1528
vn 6.01593e-15 1 1.86701e-14
v -3.21965e-14 -0.384 -0.70908
vt 39.3701 67.2866
v -0.12 -0.384 -0.70908
vt 44.0945 67.2866
vt 44.0945 58.1528
f 66/152/29 71/153/29 72/154/29 70/155/29 

vt -67.2866 24.252
f 71/156/21 66/142/21 60/119/21

v -2.64233e-14 -0.295805 -0.76
vt -69.2913 27.7242
f 73/157/21 71/156/21 60/119/21

vn -2.00527e-14 -0.5 -0.866025
v -0.12 -0.295805 -0.76
vt -44.0945 58.6555
v -0.12 -0.183082 -0.82508
vt -39.3701 58.6555
f 71/145/30 72/146/30 74/158/30 75/147/30 59/144/30 73/159/30 

vt 69.2913 27.7242
vt 67.2866 24.252
f 74/160/19 46/57/19 72/161/19

vt 71.8536 32.1621
f 75/162/19 46/57/19 74/160/19

f 46/57/19 75/162/19 50/105/19

v -0.12 -0.0703594 -0.76
vt 69.2913 36.6
f 75/162/19 76/163/19 50/105/19

v -0.12 0.0178358 -0.70908
vn -2.15642e-14 0.5 -0.866025
vt -39.3701 -2.94912
vt -44.0945 -2.94912
f 77/151/31 57/148/31 58/164/31 59/149/31 75/150/31 76/165/31 

vt -39.3701 67.2866
vn -7.51991e-15 -1 -1.86701e-14
vt -39.3701 58.1528
vt -44.0945 58.1528
vt -44.0945 67.2866
f 57/166/32 56/167/32 69/168/32 77/169/32 

vt 67.2866 40.0723
vt 58.1528 40.0723
f 77/170/19 69/171/19 50/105/19

vt 37.9953 32.1621
f 69/171/19 65/172/19 50/105/19

vt 53.5858 32.1621
f 68/173/19 65/172/19 69/171/19

vt 58.1528 24.252
f 68/173/19 70/174/19 65/172/19

f 70/174/19 46/57/19 65/172/19

f 72/161/19 46/57/19 70/174/19

vt 33.4284 24.252
f 65/172/19 46/57/19 64/175/19

f 64/175/19 46/57/19 47/101/19

f 65/172/19 51/106/19 50/105/19

vt 39.3701 8.85557
vn -3.61638e-15 -0.5 0.866025
vt 39.3701 17.9894
vt 44.0945 17.9894
vt 44.0945 8.85557
f 55/176/33 52/177/33 51/178/33 65/179/33 

f 76/163/19 77/170/19 50/105/19

f 59/118/21 73/157/21 60/119/21

v -4.37428e-14 -0.183082 0.49892
vt -39.3701 17.9894
vt -39.3701 8.85557
vt -44.0945 8.85557
vt -44.0945 17.9894
f 78/180/28 62/181/28 47/182/28 48/183/28 

vt -19.7276 32.1621
f 78/184/21 37/129/21 62/132/21

vt -4.72441 70.7087
f 38/185/21 37/129/21 78/184/21

vn -1.60716e-14 -3.61785e-14 -1
v -4.95159e-14 -0.948 0.88
vt -39.3701 2.04724
v -0.12 -0.948 0.88
vt -44.0945 2.04724
f 40/79/34 39/78/34 38/77/34 37/76/34 79/186/34 80/187/34 

vn 1.44673e-28 1 1.15199e-15
f 38/123/35 54/126/35 50/100/35 39/99/35 

f 54/112/21 38/185/21 53/113/21

f 78/184/21 53/113/21 38/185/21

vt -39.3701 46.8509
vn -3.61638e-15 -0.5 -0.866025
vt -39.3701 37.717
vt -44.0945 37.717
vt -44.0945 46.8509
f 53/188/36 78/189/36 48/190/36 49/191/36 

vt -1.50668e-12 25.3653
vn 0.965926 -0.258819 1.0079e-14
vt -1.40549e-12 22.7959
vn 0.991445 -0.130526 5.05281e-15
vt -4.72441 22.7959
vt -4.72441 25.3653
f 44/192/37 45/193/38 34/194/38 33/195/37 

vt -7.58724e-13 5.84112
vn 0.866025 -0.5 1.95048e-14
vt -6.43355e-13 3.27171
vt -4.72441 3.27171
vt -4.72441 5.84112
f 43/196/39 44/197/37 33/198/37 32/199/39 

vt 1.83664e-13 -13.9936
vn 0.707107 -0.707107 2.75753e-14
vt 3.0153e-13 -16.563
vt -4.72441 -16.563
vt -4.72441 -13.9936
f 42/200/40 43/201/39 32/202/39 31/203/40 

vt 1.58543e-12 -32.7871
vt 1.76007e-12 -35.3565
vt -4.72441 -35.3565
vt -4.72441 -32.7871
f 41/204/16 42/205/40 31/206/40 30/207/16 

