# Alias OBJ Model File
# Exported from SketchUp, (c) 2000-2012 Trimble Navigation Limited
# File units = meters

mtllib 2House_2_3up.mtl

g Mesh1 Group1 Model

usemtl FrontColor
v 1.36 -0.12 0.56
vt -92.9134 -6.45314
vn 3.97102e-16 0.933346 -0.358979
v -1 -0.12 0.56
vt -2.04047e-13 -6.45314
v -1 0.0492308 1
vt 4.16415e-15 12.1068
v 1.36 0.0492308 1
vt -92.9134 12.1068
f 1/1/1 2/2/1 3/3/1 4/4/1 

v 1.36 -0.28 0.04
vt -92.9134 -30.7372
vn 5.48005e-16 0.955779 -0.294086
v -1 -0.28 0.04
vt -3.77304e-13 -30.7372
vt -1.88079e-13 -9.31754
vt -92.9134 -9.31754
f 5/5/2 6/6/2 2/7/2 1/8/2 

v 1.36 -0.36 -0.26
vt -92.9134 -44.5083
vn 2.38211e-15 0.966235 -0.257663
v -1 -0.36 -0.26
vt 2.66042e-13 -44.5083
vt -7.05256e-14 -32.2845
vt -92.9134 -32.2845
f 7/9/3 8/10/3 6/11/3 5/12/3 

v 1.36 -0.401851 -0.26
vt -92.9134 25.7539
vn 1.52947e-15 -8.62485e-14 -1
v -1 -0.401851 -0.26
vt 8.1629e-14 25.7539
vt -1.45745e-13 27.4016
vt -92.9134 27.4016
f 9/13/4 10/14/4 8/15/4 7/16/4 

v 1.36 -0.321851 0.04
vt 92.9134 -32.709
vn -2.66713e-15 -0.966235 0.257663
v -1 -0.321851 0.04
vt -4.30195e-13 -32.709
vt -5.52454e-13 -44.9328
vt 92.9134 -44.9328
f 11/17/5 12/18/5 10/19/5 9/20/5 

v 1.06 -0.297235 0.12
vt 81.1024 -27.9264
vn -8.99572e-15 -0.955779 0.294086
v -1 -0.297235 0.12
vt -7.20168e-13 -27.9264
vt -1.27126e-12 -31.2217
vt 92.9134 -31.2217
v 1.36 -0.157827 0.573077
vt 92.9134 -9.26344
v 1.26 -0.157827 0.573077
vt 88.9764 -9.26344
v 1.26 -0.297235 0.12
vt 88.9764 -27.9264
v 1.2 -0.297235 0.12
vt 86.6142 -27.9264
f 13/21/6 14/22/6 12/23/6 11/24/6 15/25/6 16/26/6 17/27/6 18/28/6 

v 1.2 -1 0.12
vt -86.6142 2.20472
vn -6.70389e-16 1.2074e-13 -1
v 1.06 -1 0.12
vt -81.1024 2.20472
v 1.06 -0.465235 0.12
vt -81.1024 23.2585
v 6.72795e-14 -0.465235 0.12
vt -39.3701 23.2585
v -1 -0.465235 0.12
vt -2.53123e-13 23.2585
vt -4.80497e-13 29.8726
vt -81.1024 29.8726
vt -86.6142 29.8726
vt -88.9764 29.8726
v 1.26 -1 0.12
vt -88.9764 2.20472
f 19/29/7 20/30/7 21/31/7 22/32/7 23/33/7 14/34/7 13/35/7 18/36/7 17/37/7 24/38/7 

vt -38.41 23.2585
vn -1 -1.59562e-13 6.40264e-14
vt -38.41 2.20472
v 1.06 -1 1
vt -3.76438 2.20472
v 1.06 0.00637419 1
vt -3.76438 41.8258
v 1.06 -0.157827 0.573077
vt -20.5724 35.3611
vt -38.41 29.8726
v 1.06 -0.297235 0.2
vt -35.2604 29.8726
v 1.06 -0.465235 0.2
vt -35.2604 23.2585
f 21/39/8 20/40/8 25/41/8 26/42/8 27/43/8 13/44/8 28/45/8 29/46/8 

vt 81.1024 2.20472
vn 3.60956e-15 7.89073e-15 1
v 1.26 -1 1
vt 88.9764 2.20472
v 1.26 0.00637419 1
vt 88.9764 41.8258
vt 81.1024 41.8258
f 25/47/9 30/48/9 31/49/9 26/50/9 

vt 3.76438 41.8258
vn 1 1.82979e-13 -4.80334e-14
vt 3.76438 2.20472
vt 38.41 2.20472
vt 38.41 29.8726
vt 20.5724 35.3611
f 31/51/10 30/52/10 24/53/10 17/54/10 16/55/10 

vn 1 6.14569e-13 -2.39425e-13
v 1.26 0.00978987 1
vt 3.76438 41.9602
f 17/54/11 32/56/11 31/51/11 16/55/11 

vt -81.1024 -26.4256
vn -6.37265e-14 0.944184 -0.329418
v 1.06 0.00978987 1
vt -81.1024 10.2682
vt -88.9764 10.2682
vt -88.9764 -26.4256
vt -86.6142 -26.4256
f 13/57/12 33/58/12 32/59/12 17/60/12 18/61/12 

vn -1 -6.14569e-13 2.39425e-13
vt -3.76438 41.9602
f 27/43/13 26/42/13 33/62/13 13/44/13 

vt 81.1024 -6.50723
vn -2.54667e-15 -0.933346 0.358979
vt 81.1024 11.5011
v -1 0.00637419 1
vt -2.67053e-14 11.5011
v -1 -0.157827 0.573077
vt 8.14291e-14 -6.50723
f 27/63/14 26/64/14 34/65/14 35/66/14 

vt -81.1024 -6.50723
vn -1.03159e-13 0.933346 -0.358979
vt -81.1024 11.5011
vt -88.9764 11.5011
vt -88.9764 -6.50723
f 27/67/15 26/68/15 31/69/15 16/70/15 

vt 92.9134 -6.50723
vn -1.27411e-14 -0.933346 0.358979
v 1.36 0.00637419 1
vt 92.9134 11.5011
vt 88.9764 11.5011
vt 88.9764 -6.50723
f 15/71/16 36/72/16 31/73/16 16/74/16 

vt 21.0872 36.8504
vn 1 2.43554e-13 -1.4028e-13
vt 3.76438 43.513
vt 41.5597 28.9035
vt 53.3707 25.7539
vt 53.3707 27.4016
vt 41.5597 30.5512
f 1/75/17 4/76/17 36/51/17 15/55/17 11/77/17 9/78/17 7/79/17 5/80/17 

vt 8.59419e-16 41.8258
vn 2.28303e-16 2.24401e-14 1
vt 81.1024 41.9602
vt 88.9764 41.9602
vt 92.9134 41.8258
vt 92.9134 43.513
vt 8.59419e-16 43.513
f 34/81/18 26/50/18 33/82/18 32/83/18 31/49/18 36/84/18 4/85/18 3/86/18 

vn 7.73543e-14 -0.955779 0.294086
vt 81.1024 -9.26344
f 17/27/19 16/26/19 27/87/19 13/21/19 18/28/19 

vn -5.22386e-15 -0.955779 0.294086
vt -1.38054e-13 -9.26344
vt -2.27532e-13 -27.9264
f 27/87/20 35/88/20 14/89/20 13/21/20 

vt 81.1024 38.41
vn 2.62832e-15 1 -3.20348e-13
vt 3.76233e-13 38.41
v -1 -0.297235 0.2
vt 1.48859e-13 35.2604
vt 81.1024 35.2604
f 13/90/21 14/91/21 37/92/21 28/93/21 

v 6.72795e-14 -0.465235 0.2
vt 39.3701 23.2585
vn -2.79498e-14 -5.36905e-13 1
vt 81.1024 23.2585
vt 81.1024 29.8726
vt -7.58148e-13 29.8726
v -1 -0.465235 0.2
vt -7.58148e-13 23.2585
f 38/94/22 29/95/22 28/96/22 37/97/22 39/98/22 

vt -39.3701 38.41
vn -1.33323e-15 -1 -4.93495e-15
vt -81.1024 38.41
vt -81.1024 35.2604
vt -39.3701 35.2604
v 0.0103528 -0.465235 0.198637
vt -39.7777 35.3141
v 0.02 -0.465235 0.194641
vt -40.1575 35.4714
v 0.0282843 -0.465235 0.188284
vt -40.4836 35.7217
v 0.034641 -0.465235 0.18
vt -40.7339 36.0478
v 0.038637 -0.465235 0.170353
vt -40.8912 36.4277
v 0.04 -0.465235 0.16
vt -40.9449 36.8352
v 0.038637 -0.465235 0.149647
vt -40.8912 37.2428
v 0.034641 -0.465235 0.14
vt -40.7339 37.6226
v 0.0282843 -0.465235 0.131716
vt -40.4836 37.9488
v 0.02 -0.465235 0.125359
vt -40.1575 38.1991
v 0.0103528 -0.465235 0.121363
vt -39.7777 38.3564
f 22/99/23 21/100/23 29/101/23 38/102/23 40/103/23 41/104/23 42/105/23 43/106/23 44/107/23 45/108/23 46/109/23 47/110/23 48/111/23 49/112/23 50/113/23 

vt 43.6357 23.2585
vn -1.04618e-13 9.44972e-15 1
v 5.57332e-14 -1 0.2
vt 43.6357 2.20472
v 0.0103528 -1 0.198637
vt 44.0468 2.20472
vn 0.258819 6.72839e-15 0.965926
vt 44.0468 23.2585
f 38/114/24 51/115/24 52/116/25 40/117/25 

v -0.0103528 -0.465235 0.198637
vt 34.0197 23.2585
vn -0.258819 1.78171e-14 0.965926
v -0.0103528 -1 0.198637
vt 34.0197 2.20472
vt 34.4309 2.20472
vt 34.4309 23.2585
f 53/118/26 54/119/26 51/120/24 38/121/24 

v -0.02 -0.465235 0.194641
vt 22.0714 23.2585
vn -0.5 2.92391e-14 0.866025
v -0.02 -1 0.194641
vt 22.0714 2.20472
vt 22.4825 2.20472
vt 22.4825 23.2585
f 55/122/27 56/123/27 54/124/26 53/125/26 

v -0.0282843 -0.465235 0.188284
vt 8.60495 23.2585
vn -0.707107 2.75198e-14 0.707107
v -0.0282843 -1 0.188284
vt 8.60495 2.20472
vt 9.01606 2.20472
vt 9.01606 23.2585
f 57/126/28 58/127/28 56/128/27 55/129/27 

v -0.034641 -0.465235 0.18
vt -5.46193 23.2585
vn -0.866025 2.17321e-14 0.5
v -0.034641 -1 0.18
vt -5.46193 2.20472
vt -5.05083 2.20472
vt -5.05083 23.2585
f 59/130/29 60/131/29 58/132/28 57/133/28 

v -0.038637 -0.465235 0.170353
vt -19.1706 23.2585
vn -0.965926 2.49608e-14 0.258819
v -0.038637 -1 0.170353
vt -19.1706 2.20472
vt -18.7595 2.20472
vt -18.7595 23.2585
f 61/134/30 62/135/30 60/136/29 59/137/29 

v -0.04 -0.465235 0.16
vt -31.5868 23.2585
vn -1 2.4388e-14 -1.50628e-13
v -0.04 -1 0.16
vt -31.5868 2.20472
vt -31.1757 2.20472
vt -31.1757 23.2585
f 63/138/31 64/139/31 62/140/30 61/141/30 

v -0.038637 -0.465235 0.149647
vt -41.8645 23.2585
vn -0.965926 1.67782e-14 -0.258819
v -0.038637 -1 0.149647
vt -41.8645 2.20472
vt -41.4534 2.20472
vt -41.4534 23.2585
f 65/142/32 66/143/32 64/144/31 63/145/31 

v -0.034641 -0.465235 0.14
vt -49.3032 23.2585
vn -0.866025 8.49362e-15 -0.5
v -0.034641 -1 0.14
vt -49.3032 2.20472
vt -48.8921 2.20472
vt -48.8921 23.2585
f 67/146/33 68/147/33 66/148/32 65/149/32 

v -0.0282843 -0.465235 0.131716
vt -53.3959 23.2585
vn -0.707107 2.90107e-15 -0.707107
v -0.0282843 -1 0.131716
vt -53.3959 2.20472
vt -52.9848 2.20472
vt -52.9848 23.2585
f 69/150/34 70/151/34 68/152/33 67/153/33 

v -0.02 -0.465235 0.125359
vt -53.8638 23.2585
vn -0.5 -2.72687e-15 -0.866025
v -0.02 -1 0.125359
vt -53.8638 2.20472
vt -53.4527 2.20472
vt -53.4527 23.2585
f 71/154/35 72/155/35 70/156/34 69/157/34 

v -0.0103528 -0.465235 0.121363
vt -50.675 23.2585
vn -0.258819 5.60907e-14 -0.965926
v -0.0103528 -1 0.121363
vt -50.675 2.20472
vt -50.2639 2.20472
vt -50.2639 23.2585
f 73/158/36 74/159/36 72/160/35 71/161/35 

vt -44.0468 23.2585
vn -1.73178e-13 1.18796e-13 -1
v 5.57332e-14 -1 0.12
vt -44.0468 2.20472
vt -43.6357 2.20472
vt -43.6357 23.2585
f 22/162/37 75/163/37 74/164/36 73/165/36 

vt -34.4309 23.2585
vn 0.258819 4.8868e-14 -0.965926
v 0.0103528 -1 0.121363
vt -34.4309 2.20472
vt -34.0197 2.20472
vt -34.0197 23.2585
f 50/166/38 76/167/38 75/168/37 22/169/37 

vt -22.4825 23.2585
vn 0.5 -2.73892e-14 -0.866025
v 0.02 -1 0.125359
vt -22.4825 2.20472
vt -22.0714 2.20472
vt -22.0714 23.2585
f 49/170/39 77/171/39 76/172/38 50/173/38 

vt -9.01606 23.2585
vn 0.707107 -2.37385e-14 -0.707107
v 0.0282843 -1 0.131716
vt -9.01606 2.20472
vt -8.60495 2.20472
vt -8.60495 23.2585
f 48/174/40 78/175/40 77/176/39 49/177/39 

vt 5.05083 23.2585
vn 0.866025 -3.24974e-15 -0.5
v 0.034641 -1 0.14
vt 5.05083 2.20472
vt 5.46193 2.20472
vt 5.46193 23.2585
f 47/178/41 79/179/41 78/180/40 48/181/40 

vt 18.7595 23.2585
vn 0.965926 8.58087e-16 -0.258819
v 0.038637 -1 0.149647
vt 18.7595 2.20472
vt 19.1706 2.20472
vt 19.1706 23.2585
f 46/182/42 80/183/42 79/184/41 47/185/41 

vt 31.1757 23.2585
vn 1 -1.04443e-14 2.92213e-13
v 0.04 -1 0.16
vt 31.1757 2.20472
vt 31.5868 2.20472
vt 31.5868 23.2585
f 45/186/43 81/187/43 80/188/42 46/189/42 

vt 41.4534 23.2585
vn 0.965926 -1.42501e-14 0.258819
v 0.038637 -1 0.170353
vt 41.4534 2.20472
vt 41.8645 2.20472
vt 41.8645 23.2585
f 44/190/44 82/191/44 81/192/43 45/193/43 

vt 48.8921 23.2585
vn 0.866025 -8.75458e-15 0.5
v 0.034641 -1 0.18
vt 48.8921 2.20472
vt 49.3032 2.20472
vt 49.3032 23.2585
f 43/194/45 83/195/45 82/196/44 44/197/44 

vt 52.9848 23.2585
vn 0.707107 -2.36135e-15 0.707107
v 0.0282843 -1 0.188284
vt 52.9848 2.20472
vt 53.3959 2.20472
vt 53.3959 23.2585
f 42/198/46 84/199/46 83/200/45 43/201/45 

vt 53.4527 23.2585
vn 0.5 2.6378e-15 0.866025
v 0.02 -1 0.194641
vt 53.4527 2.20472
vt 53.8638 2.20472
vt 53.8638 23.2585
f 41/202/47 85/203/47 84/204/46 42/205/46 

vt 50.2639 23.2585
vt 50.2639 2.20472
vt 50.675 2.20472
vt 50.675 23.2585
f 40/206/25 52/207/25 85/208/47 41/209/47 

vt 38.9625 35.3141
vn 9.21915e-15 1 -3.8187e-15
vt 39.3701 35.2604
vt 39.7777 35.3141
vt 40.1575 35.4714
vt 40.4836 35.7217
vt 40.7339 36.0478
vt 40.8912 36.4277
vt 40.9449 36.8352
vt 40.8912 37.2428
vt 40.7339 37.6226
vt 40.4836 37.9488
vt 40.1575 38.1991
vt 39.7777 38.3564
vt 39.3701 38.41
vt 38.9625 38.3564
vt 38.5827 38.1991
vt 38.2565 37.9488
vt 38.0063 37.6226
vt 37.8489 37.2428
vt 37.7953 36.8352
vt 37.8489 36.4277
vt 38.0063 36.0478
vt 38.2565 35.7217
vt 38.5827 35.4714
f 53/210/48 38/211/48 40/212/48 41/213/48 42/214/48 43/215/48 44/216/48 45/217/48 46/218/48 47/219/48 48/220/48 49/221/48 50/222/48 22/223/48 73/224/48 71/225/48 69/226/48 67/227/48 65/228/48 63/229/48 61/230/48 59/231/48 57/232/48 55/233/48 

vn 5.53554e-16 -1 1.00265e-15
vt -2.40248e-13 35.2604
vt -2.40248e-13 38.41
vt -38.9625 38.3564
vt -38.5827 38.1991
vt -38.2565 37.9488
vt -38.0063 37.6226
vt -37.8489 37.2428
vt -37.7953 36.8352
vt -37.8489 36.4277
vt -38.0063 36.0478
vt -38.2565 35.7217
vt -38.5827 35.4714
vt -38.9625 35.3141
f 38/102/49 39/234/49 23/235/49 22/99/49 73/236/49 71/237/49 69/238/49 67/239/49 65/240/49 63/241/49 61/242/49 59/243/49 57/244/49 55/245/49 53/246/49 

v 1.2 -0.297235 0.2
vt 86.6142 29.8726
vn -5.15651e-14 -4.29709e-14 1
v 1.2 -0.465235 0.2
vt 86.6142 23.2585
f 86/247/50 28/96/50 29/95/50 87/248/50 

vt 86.6142 38.41
vn -7.73477e-14 1 -2.52669e-13
vt 86.6142 35.2604
f 18/249/51 13/90/51 28/93/51 86/250/51 

g Mesh2 Group1 Model

v 1.18965 -0.465235 0.198637
vt 80.8597 23.2585
vn -0.258819 -2.30564e-14 0.965926
v 1.18965 -0.956 0.198637
vt 80.8597 3.93701
v 1.2 -0.956 0.2
vt 81.2708 3.93701
vn -0.130526 -6.51709e-14 0.991445
vt 81.2708 23.2585
f 88/251/52 89/252/52 90/253/53 87/254/53 

v 1.18 -0.465235 0.194641
vt 65.7193 23.2585
vn -0.5 2.22921e-14 0.866025
v 1.18 -0.956 0.194641
vt 65.7193 3.93701
vt 66.1304 3.93701
vt 66.1304 23.2585
f 91/255/54 92/256/54 89/257/52 88/258/52 

v 1.17172 -0.465235 0.188284
vt 46.0862 23.2585
vn -0.707107 2.08994e-14 0.707107
v 1.17172 -0.956 0.188284
vt 46.0862 3.93701
vt 46.4973 3.93701
vt 46.4973 23.2585
f 93/259/55 94/260/55 92/261/54 91/262/54 

v 1.16536 -0.465235 0.18
vt 23.2985 23.2585
vn -0.866025 1.99511e-14 0.5
v 1.16536 -0.956 0.18
vt 23.2985 3.93701
vt 23.7096 3.93701
vt 23.7096 23.2585
f 95/263/56 96/264/56 94/265/55 93/266/55 

v 1.16136 -0.465235 0.170353
vt -1.09107 23.2585
vn -0.965926 2.96698e-14 0.258819
v 1.16136 -0.956 0.170353
vt -1.09107 3.93701
vt -0.679966 3.93701
vt -0.679966 23.2585
f 97/267/57 98/268/57 96/269/56 95/270/56 

v 1.16 -0.465235 0.16
vt -25.4202 23.2585
vn -1 3.24587e-14 -1.41599e-13
v 1.16 -0.956 0.16
vt -25.4202 3.93701
vt -25.0091 3.93701
vt -25.0091 23.2585
f 99/271/58 100/272/58 98/273/57 97/274/57 

v 1.16136 -0.465235 0.149647
vt -48.0311 23.2585
vn -0.965926 2.63268e-14 -0.258819
v 1.16136 -0.956 0.149647
vt -48.0311 3.93701
vt -47.62 3.93701
vt -47.62 23.2585
f 101/275/59 102/276/59 100/277/58 99/278/58 

v 1.16536 -0.465235 0.14
vt -67.3827 23.2585
vn -0.866025 2.10653e-14 -0.5
v 1.16536 -0.956 0.14
vt -67.3827 3.93701
vt -66.9716 3.93701
vt -66.9716 23.2585
f 103/279/60 104/280/60 102/281/59 101/282/59 

v 1.17172 -0.465235 0.131716
vt -82.1563 23.2585
vn -0.707107 1.33441e-14 -0.707107
v 1.17172 -0.956 0.131716
vt -82.1563 3.93701
vt -81.7452 3.93701
vt -81.7452 23.2585
f 105/283/61 106/284/61 104/285/60 103/286/60 

v 1.18 -0.465235 0.125359
vt -91.3451 23.2585
vn -0.608761 8.49288e-15 -0.793353
v 1.18 -0.956 0.125359
vt -91.3451 3.93701
vt -90.934 3.93701
vt -90.934 23.2585
f 107/287/62 108/288/62 106/289/61 105/290/61 

vt 86.2066 35.3141
vn -9.44613e-14 1 -7.83547e-15
v 1.2 -0.465235 0.12
v 1.18965 -0.465235 0.121363
vt 86.2066 38.3564
vt 85.8268 38.1991
vt 85.5006 37.9488
vt 85.2504 37.6226
vt 85.093 37.2428
vt 85.0394 36.8352
vt 85.093 36.4277
vt 85.2504 36.0478
vt 85.5006 35.7217
vt 85.8268 35.4714
f 88/291/63 87/250/63 109/249/63 110/292/63 107/293/63 105/294/63 103/295/63 101/296/63 99/297/63 97/298/63 95/299/63 93/300/63 91/301/63 

