# Alias OBJ Model File
# Exported from SketchUp, (c) 2000-2012 Trimble Navigation Limited
# File units = meters

mtllib 2House_2_1_up.mtl

g Mesh1 Group1 Model

usemtl FrontColor
v 1.26 -0.157827 -0.573077
vt -88.9764 42.4881
vn 7.74795e-14 -0.955779 -0.294086
v 1.26 -0.297235 -0.12
vt -88.9764 23.8252
v 1.2 -0.297235 -0.12
vt -86.6142 23.8252
v 1.06 -0.297235 -0.12
vt -81.1024 23.8252
v 1.06 -0.157827 -0.573077
vt -81.1024 42.4881
f 1/1/1 2/2/1 3/3/1 4/4/1 5/5/1 

vt 14.9606 32.3923
vn 1 1.73682e-13 4.64557e-14
v 1.26 -1 -0.12
vt 14.9606 4.72441
v 1.26 -1 -1
vt 49.6063 4.72441
v 1.26 0.00637419 -1
vt 49.6063 44.3454
vt 32.7983 37.8808
f 2/6/2 6/7/2 7/8/2 8/9/2 1/10/2 

vt 86.6142 32.3923
vn -2.42646e-12 1.52786e-13 1
v 1.2 -0.405235 -0.12
vt 86.6142 28.1403
v 1.22 -0.405235 -0.12
vt 87.4016 28.1403
v 1.22 -0.465235 -0.12
vt 87.4016 25.7781
v 1.2 -0.465235 -0.12
vt 86.6142 25.7781
v 1.2 -1 -0.12
vt 86.6142 4.72441
vt 88.9764 4.72441
vt 88.9764 32.3923
f 3/11/3 9/12/3 10/13/3 11/14/3 12/15/3 13/16/3 6/17/3 2/18/3 

v 1.2 -0.297235 -0.2
vt 18.1102 32.3923
vn 1 1.37276e-13 -7.04954e-14
vt 14.9606 28.1403
vt 14.9606 25.7781
v 1.2 -0.465235 -0.2
vt 18.1102 25.7781
f 14/19/4 3/6/4 9/20/4 12/21/4 15/22/4 

vt 86.6142 18.1102
vn -7.60585e-14 1 2.54925e-13
v 1.06 -0.297235 -0.2
vt 81.1024 18.1102
vt 81.1024 14.9606
vt 86.6142 14.9606
f 14/23/5 16/24/5 4/25/5 3/26/5 

vt -86.6142 25.7781
vn -6.37843e-27 -7.69179e-13 -1
v 1.18 -0.465235 -0.2
vt -85.8268 25.7781
v 1.06 -0.465235 -0.2
vt -81.1024 25.7781
vt -81.1024 32.3923
vt -86.6142 32.3923
f 15/27/6 17/28/6 18/29/6 16/30/6 14/31/6 

v 1.22 -0.465235 -1
vt -87.4016 49.6063
vn 7.75985e-14 -1 -4.10673e-15
v 1.22 -0.465235 -0.194641
vt -87.4016 17.8993
v 1.21035 -0.465235 -0.198637
vt -87.0218 18.0566
vt -86.6142 18.1102
vt -85.8268 18.1102
v 1.18 -0.465235 -1
vt -85.8268 49.6063
f 19/32/7 20/33/7 21/34/7 15/35/7 17/36/7 22/37/7 

v 1.22 -0.405235 -1
vt 49.6063 28.1403
vn 1 3.91742e-13 -1.183e-14
v 1.22 -0.465235 -0.125359
vt 15.1716 25.7781
vt 17.8993 25.7781
vt 49.6063 25.7781
f 23/38/8 10/20/8 11/21/8 24/39/8 20/40/8 19/41/8 

v 1.18 -0.405235 -1
vt 85.8268 49.6063
vn -1.6243e-13 1 -3.53109e-15
v 1.18 -0.405235 -0.12
vt 85.8268 14.9606
vt 87.4016 14.9606
vt 87.4016 49.6063
f 25/42/9 26/43/9 9/26/9 10/44/9 23/45/9 

v 1.18 -0.465235 -0.125359
vt -15.1716 25.7781
vn -1 -2.7995e-13 1.16352e-14
v 1.18 -0.465235 -0.12
vt -14.9606 25.7781
vt -14.9606 28.1403
vt -49.6063 28.1403
vt -49.6063 25.7781
vt -18.1102 25.7781
v 1.18 -0.465235 -0.194641
vt -17.8993 25.7781
f 27/46/10 28/47/10 26/48/10 25/49/10 22/50/10 17/51/10 29/52/10 

v 1.17172 -0.465235 -0.131716
vt -85.5006 15.4219
vn -2.84896e-14 -1 1.11992e-14
vt -85.8268 15.1716
vt -85.8268 14.9606
v 1.06 -0.465235 -0.12
vt -81.1024 14.9606
vt -81.1024 18.1102
vt -85.8268 17.8993
v 1.17172 -0.465235 -0.188284
vt -85.5006 17.649
v 1.16536 -0.465235 -0.18
vt -85.2504 17.3228
v 1.16136 -0.465235 -0.170353
vt -85.093 16.943
v 1.16 -0.465235 -0.16
vt -85.0394 16.5354
v 1.16136 -0.465235 -0.149647
vt -85.093 16.1278
v 1.16536 -0.465235 -0.14
vt -85.2504 15.748
f 30/53/11 27/54/11 28/55/11 31/56/11 18/57/11 17/36/11 29/58/11 32/59/11 33/60/11 34/61/11 35/62/11 36/63/11 37/64/11 

vn -1.72551e-14 -1 -1.19387e-14
f 32/59/12 29/58/12 27/54/12 30/53/12 37/64/12 36/63/12 35/62/12 34/61/12 33/60/12 

vn -1.82524e-14 -1 -6.16148e-15
vt -86.6142 14.9606
v 1.18965 -0.465235 -0.121363
vt -86.2066 15.0143
v 1.18965 -0.465235 -0.198637
vt -86.2066 18.0566
f 15/35/13 12/65/13 38/66/13 27/54/13 29/58/13 39/67/13 

vt -87.4016 15.1716
vn 0 -1 -0
v 1.21035 -0.465235 -0.121363
vt -87.0218 15.0143
f 24/68/14 40/69/14 12/65/14 15/35/14 21/34/14 20/33/14 

vn 3.19761e-13 -1 1.14306e-12
vt -87.4016 14.9606
f 24/68/15 11/70/15 12/65/15 40/69/15 

vn 1.53406e-13 -1 1.35358e-14
v 1.22 -0.465235 -0.04
vt -87.4016 11.811
v 1.18 -0.465235 -0.04
vt -85.8268 11.811
f 28/55/16 12/65/16 11/70/16 41/71/16 42/72/16 

vt 81.1024 25.7781
vn 2.80731e-13 2.64618e-13 1
v 1.06 -1 -0.12
vt 81.1024 4.72441
vt 85.8268 25.7781
f 31/73/17 43/74/17 13/16/17 12/15/17 28/75/17 

v 1.06 0.00637419 -1
vt -49.6063 44.3454
vn -1 -5.18007e-13 8.99508e-14
v 1.06 -1 -1
vt -49.6063 4.72441
v 1.06 -1 -0.22
vt -18.8976 4.72441
vt -14.9606 4.72441
vt -18.1102 32.3923
vt -14.9606 32.3923
vt -32.7983 37.8808
f 44/76/18 45/77/18 46/78/18 43/79/18 31/47/18 18/51/18 16/80/18 4/81/18 5/82/18 

vt -81.1024 44.3454
vn 6.56733e-28 -9.30953e-15 -1
vt -81.1024 4.72441
f 44/83/19 22/28/19 45/84/19

vt -85.8268 28.1403
f 22/28/19 44/83/19 25/85/19

vt -87.4016 28.1403
f 25/85/19 44/83/19 23/86/19

vt -88.9764 44.3454
f 8/87/19 23/86/19 44/83/19

vt -87.4016 25.7781
f 8/87/19 19/88/19 23/86/19

vt -88.9764 4.72441
f 7/89/19 19/88/19 8/87/19

f 19/88/19 7/89/19 45/84/19

f 19/88/19 45/84/19 22/28/19

vn 0 0 -1
f 22/28/20 25/85/20 23/86/20 19/88/20 

v 1.06 0.00978987 -1
vt -81.1024 44.4799
f 8/87/19 44/83/19 47/90/19

v -1 0.00637419 -1
vt 3.03404e-16 44.3454
vn 6.11625e-18 -1.7112e-14 -1
v -1 0.0492308 -1
vt 3.03404e-16 46.0327
v 1.36 0.0492308 -1
vt -92.9134 46.0327
v 1.36 0.00637419 -1
vt -92.9134 44.3454
v 1.26 0.00978987 -1
vt -88.9764 44.4799
f 48/91/21 49/92/21 50/93/21 51/94/21 8/87/21 52/95/21 47/90/21 44/83/21 

vt -49.6063 46.0327
vn -1 -2.78485e-14 -4.93976e-15
v -1 -0.157827 -0.573077
v -1 -0.297235 -0.12
v -1 -0.321851 -0.04
vt -11.811 31.4232
v -1 -0.401851 0.26
vt -7.50333e-12 28.2736
v -1 -0.36 0.26
vt -7.38964e-12 29.9213
v -1 -0.28 -0.04
vt -11.811 33.0709
v -1 -0.12 -0.56
vt -32.2835 39.3701
f 49/96/22 48/76/22 53/82/22 54/81/22 55/97/22 56/98/22 57/99/22 58/100/22 59/101/22 

vt -81.1024 44.2106
vn -4.93326e-15 -0.933346 -0.358979
vt -6.78103e-13 44.2106
vt -6.81713e-13 62.2189
vt -81.1024 62.2189
f 5/102/23 53/103/23 48/104/23 44/105/23 

vn -5.17017e-15 -0.955779 -0.294086
vt -4.90389e-13 23.8252
vt -8.03984e-13 42.4881
f 4/4/24 54/106/24 53/107/24 5/5/24 

v 1.36 -0.321851 -0.04
vt -92.9134 20.5298
vn -3.52555e-15 -0.955779 -0.294086
vt -3.68966e-13 20.5298
vt -4.06724e-13 23.8252
v 1.36 -0.157827 -0.573077
vt -92.9134 42.4881
f 60/108/25 55/109/25 54/110/25 4/4/25 3/3/25 2/2/25 1/1/25 61/111/25 

v 1.36 -0.401851 0.26
vt -92.9134 7.28505
vn 1.52206e-14 -0.966235 -0.257663
vt -2.27374e-13 7.28505
vt 4.70324e-13 19.5088
vt -92.9134 19.5088
f 62/112/26 56/113/26 55/114/26 60/115/26 

v 1.36 -0.36 0.26
vt 92.9134 29.9213
vn -7.95326e-14 -6.89988e-14 1
vt 2.27374e-13 29.9213
vt 2.27374e-13 28.2736
vt 92.9134 28.2736
f 63/116/27 57/117/27 56/118/27 62/119/27 

v 1.36 -0.28 -0.04
vt 92.9134 19.9334
vn -1.00574e-14 0.966235 0.257663
vt -2.33651e-13 19.9334
vt 2.27374e-13 7.70959
vt 92.9134 7.70959
f 64/120/28 58/121/28 57/122/28 63/123/28 

v 1.36 -0.12 -0.56
vt 92.9134 42.434
vn 4.79262e-16 0.955779 0.294086
vt 2.79985e-13 42.434
vt 2.46622e-13 21.0144
vt 92.9134 21.0144
f 65/124/29 59/125/29 58/126/29 64/127/29 

vt 92.9134 62.8246
vn 2.85299e-16 0.933346 0.358979
vt 3.94246e-14 62.8246
vt 2.53031e-13 44.2647
vt 92.9134 44.2647
f 50/128/30 49/129/30 59/130/30 65/131/30 

vn 1 2.5601e-13 1.46352e-13
vt 49.6063 46.0327
vt 32.2835 39.3701
vt 11.811 33.0709
vt 1.35981e-11 29.9213
vt 1.37118e-11 28.2736
vt 11.811 31.4232
f 61/10/31 51/9/31 50/132/31 65/133/31 64/134/31 63/135/31 62/136/31 60/137/31 

vt -88.9764 62.2189
vn -5.38526e-15 -0.933346 -0.358979
vt -92.9134 62.2189
vt -92.9134 44.2106
vt -88.9764 44.2106
f 8/138/32 51/139/32 61/140/32 1/141/32 

vn 1 3.87151e-13 1.40566e-13
vt 49.6063 44.4799
f 1/10/33 8/9/33 52/142/33 2/6/33 

f 8/87/19 47/90/19 52/95/19

vt 88.9764 24.7962
vn -3.98806e-14 0.944184 0.329418
vt 88.9764 61.49
vt 81.1024 61.49
vt 81.1024 24.7962
vt 86.6142 24.7962
f 2/143/34 52/144/34 47/145/34 4/146/34 3/147/34 

vn -1 -3.87151e-13 -1.40566e-13
vt -49.6063 44.4799
f 4/81/35 47/148/35 44/76/35 5/82/35 

vn 9.4901e-13 1.83844e-15 1
vt 85.8268 28.1403
vt 81.1024 32.3923
f 31/73/36 28/75/36 26/149/36 9/12/36 3/11/36 4/150/36 

vn 4.51195e-14 -7.66028e-13 1
f 28/75/37 12/15/37 9/12/37 26/149/37 

vn -1.88095e-14 -1 6.72388e-14
f 12/65/38 28/55/38 27/54/38 38/66/38 

vn -1.42578e-12 -6.31672e-13 1
f 9/12/39 12/15/39 11/14/39 10/13/39 

vt 11.811 25.7781
vn 1 1.9251e-13 3.47085e-27
v 1.22 -0.405235 -0.04
vt 11.811 28.1403
f 41/151/40 11/21/40 10/20/40 66/152/40 

vt 87.4016 11.811
vn -1.6243e-13 1 4.06075e-14
v 1.18 -0.405235 -0.04
vt 85.8268 11.811
f 66/153/41 10/44/41 9/26/41 26/43/41 67/154/41 

vt -11.811 28.1403
vn -1 -9.62549e-14 -2.17299e-27
vt -11.811 25.7781
f 67/155/42 26/48/42 28/47/42 42/156/42 

vn 0 0 1
f 41/14/43 66/13/43 67/149/43 42/75/43 

vn -1 -1.89072e-13 -1.91307e-12
f 31/47/44 4/81/44 16/80/44 18/51/44 

vn -6.96051e-15 -1.00864e-12 1
vt 1.2324e-13 32.3923
v -1 -0.465235 -0.12
vt 1.2324e-13 25.7781
v -0.02 -0.465235 -0.12
vt 38.5827 25.7781
v -0.02 -0.405235 -0.12
vt 38.5827 28.1403
v 0.02 -0.405235 -0.12
vt 40.1575 28.1403
v 0.02 -0.465235 -0.12
vt 40.1575 25.7781
f 4/150/45 54/157/45 68/158/45 69/159/45 70/160/45 71/161/45 72/162/45 31/73/45 

vt 1.42236e-13 14.9606
vn 2.62832e-15 1 3.2486e-13
v -1 -0.297235 -0.2
vt 1.42236e-13 18.1102
f 54/163/46 4/25/46 16/24/46 73/164/46 

vt -2.27374e-13 32.3923
vn -8.17111e-28 -7.69179e-13 -1
v 0.02 -0.465235 -0.2
vt -40.1575 25.7781
v 0.02 -0.405235 -0.2
vt -40.1575 28.1403
v -0.02 -0.405235 -0.2
vt -38.5827 28.1403
v -0.02 -0.465235 -0.2
vt -38.5827 25.7781
v -1 -0.465235 -0.2
vt -2.27374e-13 25.7781
f 73/165/47 16/30/47 18/29/47 74/166/47 75/167/47 76/168/47 77/169/47 78/170/47 

v 0.0282843 -0.465235 -0.188284
vt -40.4836 17.649
vn -2.34089e-15 -1 1.11992e-14
v 0.02 -0.465235 -0.194641
vt -40.1575 17.8993
vt -40.1575 18.1102
vt -40.1575 14.9606
v 0.02 -0.465235 -0.125359
vt -40.1575 15.1716
v 0.0282843 -0.465235 -0.131716
vt -40.4836 15.4219
v 0.034641 -0.465235 -0.14
vt -40.7339 15.748
v 0.038637 -0.465235 -0.149647
vt -40.8912 16.1278
v 0.04 -0.465235 -0.16
vt -40.9449 16.5354
v 0.038637 -0.465235 -0.170353
vt -40.8912 16.943
v 0.034641 -0.465235 -0.18
vt -40.7339 17.3228
f 79/171/48 80/172/48 74/173/48 18/57/48 31/56/48 72/174/48 81/175/48 82/176/48 83/177/48 84/178/48 85/179/48 86/180/48 87/181/48 

vn -2.20516e-14 -1 -9.05928e-15
f 82/176/49 81/175/49 80/172/49 79/171/49 87/181/49 86/180/49 85/179/49 84/178/49 83/177/49 

v 0.0282843 -1 -0.131716
vt 41.5061 4.72441
vn 0.707107 -3.91371e-14 0.707107
vt 41.5061 25.7781
vt 41.095 25.7781
vn 0.5 -2.80422e-14 0.866025
v 0.02 -1 -0.125359
vt 41.095 4.72441
f 88/182/50 82/183/50 81/184/51 89/185/51 

vt 36.8799 25.7781
vt 36.8799 4.72441
v 0.034641 -1 -0.14
vt 37.291 4.72441
vn 0.866025 -3.89934e-14 0.5
vt 37.291 25.7781
f 82/186/50 88/187/50 90/188/52 83/189/52 

vt 30.1375 25.7781
vt 30.1375 4.72441
v 0.038637 -1 -0.149647
vt 30.5486 4.72441
vn 0.965926 -3.58372e-14 0.258819
vt 30.5486 25.7781
f 83/190/52 90/191/52 91/192/53 84/193/53 

vt 21.3272 25.7781
vt 21.3272 4.72441
v 0.04 -1 -0.16
vt 21.7383 4.72441
vn 1 -3.2399e-14 -0
vt 21.7383 25.7781
f 84/194/53 91/195/53 92/196/54 85/197/54 

vt 11.0496 25.7781
vt 11.0496 4.72441
v 0.038637 -1 -0.170353
vt 11.4607 4.72441
vn 0.965926 -2.67529e-14 -0.258819
vt 11.4607 25.7781
f 85/198/54 92/199/54 93/200/55 86/201/55 

vt 0.00491825 25.7781
vt 0.00491825 4.72441
v 0.034641 -1 -0.18
vt 0.416024 4.72441
vn 0.866025 -2.16515e-14 -0.5
vt 0.416024 25.7781
f 86/202/55 93/203/55 94/204/56 87/205/56 

vt -11.0541 25.7781
vt -11.0541 4.72441
v 0.0282843 -1 -0.188284
vt -10.643 4.72441
vn 0.707107 -1.47956e-14 -0.707107
vt -10.643 25.7781
f 87/206/56 94/207/56 95/208/57 79/209/57 

v 0.02 -1 -0.194641
vt -20.9627 4.72441
vn 0.5 -3.24326e-15 -0.866025
vt -20.9627 25.7781
vt -21.3738 25.7781
vt -21.3738 4.72441
f 96/210/58 80/211/58 79/212/57 95/213/57 

v 0.0103528 -1 -0.198637
vt -29.8398 4.72441
vn 0.258819 7.57661e-15 -0.965926
v 0.0103528 -0.465235 -0.198637
vt -29.8398 25.7781
vt -30.2509 25.7781
vt -30.2509 4.72441
f 97/214/59 98/215/59 80/216/58 96/217/58 

vt -37.0805 4.72441
v 4.9738e-14 -1 -0.2
vt -36.6694 4.72441
vn -3.61136e-14 1.61995e-14 -1
v 6.70575e-14 -0.465235 -0.2
vt -36.6694 25.7781
vt -37.0805 25.7781
f 97/218/59 99/219/60 100/220/60 98/221/59 

v -0.0103528 -1 -0.198637
vt -40.986 4.72441
vn -0.258819 2.53897e-14 -0.965926
v -0.0103528 -0.465235 -0.198637
vt -40.986 25.7781
vt -41.3971 25.7781
vt -41.3971 4.72441
f 101/222/61 102/223/61 100/224/60 99/225/60 

vt -42.9066 4.72441
v -0.02 -1 -0.194641
vt -42.4955 4.72441
vn -0.5 3.35136e-14 -0.866025
v -0.02 -0.465235 -0.194641
vt -42.4955 25.7781
vt -42.9066 25.7781
f 101/226/61 103/227/62 104/228/62 102/229/61 

v -0.0282843 -1 -0.188284
vt -41.095 4.72441
vn -0.707107 3.64995e-14 -0.707107
v -0.0282843 -0.465235 -0.188284
vt -41.095 25.7781
vt -41.5061 25.7781
vt -41.5061 4.72441
f 105/230/63 106/231/63 104/232/62 103/233/62 

v -0.034641 -0.465235 -0.18
vt -36.8799 25.7781
vn -0.866025 3.66257e-14 -0.5
vt -37.291 25.7781
vt -37.291 4.72441
v -0.034641 -1 -0.18
vt -36.8799 4.72441
f 107/234/64 106/235/63 105/236/63 108/237/64 

vt -38.2565 17.649
vt -38.5827 17.8993
v -0.02 -0.465235 -0.125359
vt -38.5827 15.1716
v -0.0282843 -0.465235 -0.131716
vt -38.2565 15.4219
v -0.034641 -0.465235 -0.14
vt -38.0063 15.748
v -0.038637 -0.465235 -0.149647
vt -37.8489 16.1278
v -0.04 -0.465235 -0.16
vt -37.7953 16.5354
v -0.038637 -0.465235 -0.170353
vt -37.8489 16.943
vt -38.0063 17.3228
f 106/238/14 104/239/14 109/240/14 110/241/14 111/242/14 112/243/14 113/244/14 114/245/14 107/246/14 

vn 4.43546e-16 -1 -2.52984e-15
vt -38.5827 14.9606
vt -2.38807e-13 14.9606
vt -2.38807e-13 18.1102
vt -38.5827 18.1102
f 110/241/65 109/240/65 69/247/65 68/248/65 78/249/65 77/250/65 104/239/65 106/238/65 107/246/65 114/245/65 113/244/65 112/243/65 111/242/65 

v -0.02 -1 -0.125359
vt 21.3738 4.72441
vn -0.5 4.54581e-15 0.866025
vt 21.3738 25.7781
vt 20.9627 25.7781
vn -0.707107 1.21576e-14 0.707107
v -0.0282843 -1 -0.131716
vt 20.9627 4.72441
f 115/251/66 109/252/66 110/253/67 116/254/67 

vt 29.8398 4.72441
v -0.0103528 -1 -0.121363
vt 30.2509 4.72441
vn -0.19509 -4.85472e-15 0.980785
v -0.0103528 -0.465235 -0.121363
vt 30.2509 25.7781
vt 29.8398 25.7781
f 115/255/66 117/256/68 118/257/68 109/258/66 

vt 38.9625 4.72441
v 0.0103528 -1 -0.121363
vt 39.7777 4.72441
vn 0.19509 -1.43359e-14 0.980785
v 0.0103528 -0.465235 -0.121363
vt 39.7777 25.7781
vt 38.9625 25.7781
f 117/259/68 119/260/69 120/261/69 118/262/68 

vt 42.9066 4.72441
vt 42.9066 25.7781
vt 42.4955 25.7781
vt 42.4955 4.72441
f 89/263/51 81/264/51 120/265/69 119/266/69 

vn -1.08009e-14 -1 -4.86466e-15
vt -39.7777 15.0143
vt -38.9625 15.0143
vt -38.9625 18.0566
vt -39.3701 18.1102
vt -39.7777 18.0566
f 80/172/70 81/175/70 120/267/70 118/268/70 109/240/70 104/239/70 102/269/70 100/270/70 98/271/70 

vn 1 3.85019e-13 2.04006e-27
vt 18.1102 28.1403
f 80/40/71 74/22/71 75/272/71 71/20/71 72/21/71 81/39/71 

vn 1.88095e-13 -1 -6.72388e-13
f 100/270/72 74/173/72 80/172/72 98/271/72 

v 0.02 -0.465235 -1
vt -40.1575 49.6063
vn 1.21823e-13 -1 -3.1512e-15
v -0.02 -0.465235 -1
vt -38.5827 49.6063
f 121/273/73 74/173/73 100/270/73 77/250/73 122/274/73 

v 0.02 -0.405235 -1
vn 1 1.9251e-13 4.14153e-28
f 123/38/74 75/272/74 74/22/74 121/41/74 

v -0.02 -0.405235 -1
vt 38.5827 49.6063
vn -1.6243e-13 1 2.63819e-31
vt 38.5827 18.1102
vt 40.1575 18.1102
vt 40.1575 49.6063
f 124/275/75 76/276/75 75/277/75 123/278/75 

vn -1 -9.62549e-14 -2.07227e-29
vt -18.1102 28.1403
f 122/50/76 77/51/76 76/279/76 124/49/76 

vn -1 -3.36892e-13 -5.18195e-31
f 70/48/77 76/279/77 77/51/77 104/52/77 109/46/77 69/47/77 

vt 40.1575 14.9606
vn -1.6243e-13 1 -0
vt 38.5827 14.9606
f 71/280/78 75/277/78 76/276/78 70/281/78 

vn 9.3782e-26 -7.70039e-13 -1
vt -39.3701 25.7781
f 75/167/79 74/166/79 100/282/79 77/169/79 76/168/79 

vn -1.88095e-14 -1 -6.72388e-14
f 102/269/80 104/239/80 77/250/80 100/270/80 

vn -9.02389e-15 -1.10292e-12 1
v 6.70575e-14 -0.465235 -0.12
vt 39.3701 25.7781
f 72/162/81 71/161/81 70/160/81 69/159/81 125/283/81 

v 0.02 -0.465235 -0.04
vn 1 1.9251e-13 -4.34144e-27
v 0.02 -0.405235 -0.04
f 126/151/82 72/21/82 71/20/82 127/152/82 

v -0.02 -0.465235 -0.04
vt -38.5827 11.811
vn 1.21823e-13 -1 3.30876e-14
vt -39.3701 14.9606
vt -40.1575 11.811
f 128/284/83 69/247/83 125/285/83 72/174/83 126/286/83 

v -0.02 -0.405235 -0.04
vn -1 -9.62549e-14 2.16181e-28
f 129/155/84 70/48/84 69/47/84 128/156/84 

vt 40.1575 11.811
vn -1.6243e-13 1 -3.63575e-30
vt 38.5827 11.811
f 127/287/85 71/280/85 70/281/85 129/288/85 

f 126/162/43 127/161/43 129/160/43 128/159/43 

f 125/285/38 69/247/38 109/240/38 118/268/38 

vn -3.48656e-14 -1 2.64831e-13
f 125/285/86 118/268/86 120/267/86

vn 1.92409e-13 -1 8.06439e-13
f 120/267/87 81/175/87 72/174/87 125/285/87 

f 123/167/20 121/166/20 122/169/20 124/168/20 

vt 11.0541 25.7781
vt 10.643 25.7781
vn -0.866025 1.92835e-14 0.5
v -0.034641 -1 -0.14
vt 10.643 4.72441
vt 11.0541 4.72441
f 110/289/67 111/290/88 130/291/88 116/292/67 

vt -0.00491825 25.7781
vt -0.416024 25.7781
vn -0.965926 2.6753e-14 0.258819
v -0.038637 -1 -0.149647
vt -0.416024 4.72441
vt -0.00491825 4.72441
f 111/293/88 112/294/89 131/295/89 130/296/88 

vt -11.0496 25.7781
vt -11.4607 25.7781
vn -1 3.23991e-14 -0
v -0.04 -1 -0.16
vt -11.4607 4.72441
vt -11.0496 4.72441
f 112/297/89 113/298/90 132/299/90 131/300/89 

vt -21.3272 25.7781
vt -21.7383 25.7781
vn -0.965926 3.58372e-14 -0.258819
v -0.038637 -1 -0.170353
vt -21.7383 4.72441
vt -21.3272 4.72441
f 113/301/90 114/302/91 133/303/91 132/304/90 

vt -30.1375 25.7781
vt -30.5486 25.7781
vt -30.5486 4.72441
vt -30.1375 4.72441
f 114/305/91 107/306/64 108/307/64 133/308/91 

v 1.22828 -0.465235 -0.188284
vt 87.7277 17.649
vn 0 1 -0
vt 87.4016 17.8993
vt 87.4016 15.1716
v 1.22828 -0.465235 -0.131716
vt 87.7277 15.4219
v 1.23464 -0.465235 -0.14
vt 87.978 15.748
v 1.23864 -0.465235 -0.149647
vt 88.1353 16.1278
v 1.24 -0.465235 -0.16
vt 88.189 16.5354
v 1.23864 -0.465235 -0.170353
vt 88.1353 16.943
v 1.23464 -0.465235 -0.18
vt 87.978 17.3228
f 134/309/92 20/310/92 24/311/92 135/312/92 136/313/92 137/314/92 138/315/92 139/316/92 140/317/92 

vn 4.31406e-15 -1 1.34051e-13
f 39/67/93 29/58/93 17/36/93 15/35/93 

