# Alias OBJ Model File
# Exported from SketchUp, (c) 2000-2012 Trimble Navigation Limited
# File units = meters

mtllib 2House_1_3_up.mtl

g Mesh1 Group1 Model

usemtl FrontColor
v -1 -0.12 0.56
vt -1.36443e-12 -5.20096
vn -3.62034e-18 0.933346 -0.358979
v -1 0.0492308 1
vt -1.81901e-12 13.359
v 1 0.0492308 1
vt -78.7402 13.359
v 1 -0.12 0.56
vt -78.7402 -5.20096
f 1/1/1 2/2/1 3/3/1 4/4/1 

vt 1.5748 41.3083
vn 1 3.57864e-15 -3.74446e-14
v -1 0.00637419 1
vt 1.5748 39.621
v -1 -0.157827 0.573077
vt 18.3828 33.1564
v -1 -0.297235 0.12
vt 36.2205 27.6679
v -1 -0.297235 0.2
vt 33.0709 27.6679
v -1 -0.465235 0.2
vt 33.0709 21.0537
v -1 -0.465235 0.12
vt 36.2205 21.0537
v -1 -0.297235 0.12
v -1 -0.321851 0.04
vt 39.3701 26.6988
v -1 -0.401851 -0.26
vt 51.1811 23.5492
v -1 -0.36 -0.26
vt 51.1811 25.1969
v -1 -0.28 0.04
vt 39.3701 28.3465
vt 18.8976 34.6457
f 2/5/2 5/6/2 6/7/2 7/8/2 8/9/2 9/10/2 10/11/2 11/8/2 12/12/2 13/13/2 14/14/2 15/15/2 1/16/2 

v 1 -0.157827 0.573077
vt 78.7402 -5.25505
vn -1.64561e-19 -0.933346 0.358979
v 1 0.00637419 1
vt 78.7402 12.7533
vt 1.81899e-12 12.7533
vt 1.13686e-12 -5.25505
f 16/17/3 17/18/3 5/19/3 6/20/3 

vt -1.5748 39.621
vn -1 -2.72346e-15 -2.63244e-15
vt -1.5748 41.3083
vt -18.8976 34.6457
v 1 -0.28 0.04
vt -39.3701 28.3465
v 1 -0.36 -0.26
vt -51.1811 25.1969
v 1 -0.401851 -0.26
vt -51.1811 23.5492
v 1 -0.321851 0.04
vt -39.3701 26.6988
v 1 -0.297235 0.12
vt -36.2205 27.6679
v 1 -0.465235 0.12
vt -36.2205 21.0537
v 1 -0.465235 0.2
vt -33.0709 21.0537
v 1 -0.297235 0.2
vt -33.0709 27.6679
v 1 -0.297235 0.12
vt -18.3828 33.1564
f 17/21/4 3/22/4 4/23/4 18/24/4 19/25/4 20/26/4 21/27/4 22/28/4 23/29/4 24/30/4 25/31/4 26/28/4 16/32/4 

vt -78.7402 -29.2928
vn 8.42581e-19 0.955779 -0.294086
vt -4.54635e-13 -29.2928
vt -1.36419e-12 -7.87316
vt -78.7402 -7.87316
f 18/33/5 15/34/5 1/35/5 4/36/5 

vt -2.70453e-12 -30.7369
vn -1.4724e-14 0.966235 -0.257663
vt -78.7402 -30.7369
vt -78.7402 -42.9607
vt -2.92471e-12 -42.9607
f 15/37/6 18/38/6 19/39/6 14/40/6 

vt -78.7402 23.5492
vn -9.56533e-14 -8.62485e-14 -1
vt -4.89564e-12 23.5492
vt -4.89564e-12 25.1969
vt -78.7402 25.1969
f 20/41/7 13/42/7 14/43/7 19/44/7 

vt 2.92359e-12 -43.3852
vn 1.47183e-14 -0.966235 0.257663
vt 78.7402 -43.3852
vt 78.7402 -31.1615
vt 2.70366e-12 -31.1615
f 13/45/8 20/46/8 21/47/8 12/48/8 

vt 78.7402 -26.482
vn -2.94903e-19 -0.955779 0.294086
vt 6.82085e-13 -26.482
vt 4.54708e-13 -29.7774
vt 78.7402 -29.7774
f 22/49/9 7/50/9 12/51/9 21/52/9 

vt 78.7402 36.2205
vn -1.75564e-31 1 -2.52669e-13
vt 6.82121e-13 36.2205
vt 6.82121e-13 33.0709
vt 78.7402 33.0709
f 22/53/10 7/54/10 8/55/10 25/56/10 

vt 78.7402 -7.81907
vn -6.74065e-19 -0.955779 0.294086
vt 1.13683e-12 -7.81907
vt 6.82038e-13 -26.482
f 16/57/11 6/58/11 7/59/11 22/49/11 

v -0.7 -0.465235 0.12
vt -11.811 21.0537
vn 6.05144e-15 -1.02593e-12 -1
vt -4.62935e-13 21.0537
vt -4.62935e-13 27.6679
vt -78.7402 27.6679
vt -78.7402 21.0537
v 0.7 -0.465235 0.12
vt -66.9291 21.0537
v 0.68 -0.465235 0.12
vt -66.1417 21.0537
v 0.66 -0.465235 0.12
vt -65.3543 21.0537
v -0.66 -0.465235 0.12
vt -13.3858 21.0537
v -0.68 -0.465235 0.12
vt -12.5984 21.0537
f 27/60/12 10/61/12 7/62/12 22/63/12 23/64/12 28/65/12 29/66/12 30/67/12 31/68/12 32/69/12 

v -0.708284 -0.465235 0.188284
vt -11.4849 33.5321
vn 1.29222e-15 -1 3.97977e-15
v -0.7 -0.465235 0.194641
vt -11.811 33.2818
v -0.7 -0.465235 0.2
vt -11.811 33.0709
vt -7.09327e-13 33.0709
vt -7.09327e-13 36.2205
vt -11.811 36.2205
v -0.7 -0.465235 0.125359
vt -11.811 36.0095
v -0.708284 -0.465235 0.131716
vt -11.4849 35.7592
v -0.714641 -0.465235 0.14
vt -11.2346 35.4331
v -0.718637 -0.465235 0.149647
vt -11.0773 35.0533
v -0.72 -0.465235 0.16
vt -11.0236 34.6457
v -0.718637 -0.465235 0.170353
vt -11.0773 34.2381
v -0.714641 -0.465235 0.18
vt -11.2346 33.8583
f 33/70/13 34/71/13 35/72/13 9/73/13 10/74/13 27/75/13 36/76/13 37/77/13 38/78/13 39/79/13 40/80/13 41/81/13 42/82/13 

vn 2.20516e-14 -1 9.05928e-15
f 37/77/14 36/76/14 34/71/14 33/70/14 42/82/14 41/81/14 40/80/14 39/79/14 38/78/14 

v -0.708284 -1 0.131716
vt -30.8804 4.99792e-13
vn -0.707107 -2.06103e-14 -0.707107
vt -30.8804 21.0537
vt -31.2915 21.0537
vn -0.5 -1.58757e-14 -0.866025
v -0.7 -1 0.125359
vt -31.2915 4.99792e-13
f 43/83/15 37/84/15 36/85/16 44/86/16 

v -0.714641 -1 0.14
vt -34.9501 3.11865e-13
vn -0.866025 -1.96108e-14 -0.5
vt -34.9501 21.0537
vt -35.3612 21.0537
vt -35.3612 3.11865e-13
f 45/87/17 38/88/17 37/89/15 43/90/15 

v -0.718637 -1 0.149647
vt -36.6241 8.80126e-14
vn -0.965926 -2.09275e-14 -0.258819
vt -36.6241 21.0537
vt -37.0352 21.0537
vt -37.0352 1.16434e-13
f 46/91/18 39/92/18 38/93/17 45/94/17 

v -0.72 -1 0.16
vt -35.7881 -1.17398e-13
vn -1 -1.829e-14 -2.92185e-13
vt -35.7881 21.0537
vt -36.1992 21.0537
vt -36.1992 -1.17398e-13
f 47/95/19 40/96/19 39/97/18 46/98/18 

v -0.718637 -1 0.170353
vt -32.4993 -1.80299e-13
vn -0.965926 -1.18827e-14 0.258819
vt -32.4993 21.0537
vt -32.9104 21.0537
vt -32.9104 -1.80299e-13
f 48/99/20 41/100/20 40/101/19 47/102/19 

v -0.714641 -1 0.18
vt -26.9817 -2.06204e-13
vn -0.866025 -1.41251e-14 0.5
vt -26.9817 21.0537
vt -27.3928 21.0537
vt -27.3928 -2.06204e-13
f 49/103/21 42/104/21 41/105/20 48/106/20 

v -0.708284 -1 0.188284
vt -19.6113 -5.30102e-13
vn -0.707107 -1.46431e-14 0.707107
vt -19.6113 21.0537
vt -20.0224 21.0537
vt -20.0224 -5.0168e-13
f 50/107/22 33/108/22 42/109/21 49/110/21 

v -0.7 -1 0.194641
vt -10.8904 -3.72259e-13
vn -0.5 -5.983e-15 0.866025
vt -10.8904 21.0537
vt -11.3015 21.0537
vt -11.3015 -3.72259e-13
f 51/111/23 34/112/23 33/113/22 50/114/22 

v -0.690353 -1 0.198637
vt -1.41334 -2.7602e-14
vn -0.258819 2.33108e-15 0.965926
v -0.690353 -0.465235 0.198637
vt -1.41334 21.0537
vt -1.82445 21.0537
vt -1.82445 -2.7602e-14
f 52/115/24 53/116/24 34/117/23 51/118/23 

v -0.68 -1 0.2
vt 8.17403 1.86104e-13
vn 3.60997e-14 8.40082e-15 1
v -0.68 -0.465235 0.2
vt 8.17403 21.0537
vt 7.76292 21.0537
vt 7.76292 1.86104e-13
f 54/119/25 55/120/25 53/121/24 52/122/24 

v -0.669647 -1 0.198637
vt 17.2184 3.78879e-13
vn 0.258819 1.32043e-14 0.965926
v -0.669647 -0.465235 0.198637
vt 17.2184 21.0537
vt 16.8073 21.0537
vt 16.8073 3.50457e-13
f 56/123/26 57/124/26 55/125/25 54/126/25 

v -0.66 -1 0.194641
vt 25.1033 4.1101e-13
vn 0.5 1.68239e-14 0.866025
v -0.66 -0.465235 0.194641
vt 25.1033 21.0537
vt 24.6922 21.0537
vt 24.6922 4.1101e-13
f 58/127/27 59/128/27 57/129/26 56/130/26 

v -0.651716 -1 0.188284
vt 31.2915 3.64873e-13
vn 0.707107 2.04072e-14 0.707107
v -0.651716 -0.465235 0.188284
vt 31.2915 21.0537
vt 30.8804 21.0537
vt 30.8804 3.64873e-13
f 60/131/28 61/132/28 59/133/27 58/134/27 

v -0.645359 -1 0.18
vt 35.3612 2.66939e-13
vn 0.866025 2.23612e-14 0.5
v -0.645359 -0.465235 0.18
vt 35.3612 21.0537
vt 34.9501 21.0537
vt 34.9501 2.38517e-13
f 62/135/29 63/136/29 61/137/28 60/138/28 

v -0.641363 -1 0.170353
vt 37.0352 5.81274e-14
vn 0.965926 1.87982e-14 0.258819
v -0.641363 -0.465235 0.170353
vt 37.0352 21.0537
vt 36.6241 21.0537
vt 36.6241 5.81274e-14
f 64/139/30 65/140/30 63/141/29 62/142/29 

v -0.64 -1 0.16
vt 36.1992 -8.58182e-14
vn 1 1.03015e-14 -2.77179e-13
v -0.64 -0.465235 0.16
vt 36.1992 21.0537
vt 35.7881 21.0537
vt 35.7881 -8.58182e-14
f 66/143/31 67/144/31 65/145/30 64/146/30 

v -0.641363 -1 0.149647
vt 32.9104 -4.45103e-14
vn 0.965926 5.36547e-15 -0.258819
v -0.641363 -0.465235 0.149647
vt 32.9104 21.0537
vt 32.4993 21.0537
vt 32.4993 -4.45103e-14
f 68/147/32 69/148/32 67/149/31 66/150/31 

v -0.645359 -1 0.14
vt 27.3928 -5.18568e-14
vn 0.866025 7.18682e-15 -0.5
v -0.645359 -0.465235 0.14
vt 27.3928 21.0537
vt 26.9817 21.0537
vt 26.9817 -8.02786e-14
f 70/151/33 71/152/33 69/153/32 68/154/32 

v -0.651716 -1 0.131716
vt 20.0224 -2.10789e-13
vn 0.707107 7.96355e-15 -0.707107
v -0.651716 -0.465235 0.131716
vt 20.0224 21.0537
vt 19.6113 21.0537
vt 19.6113 -2.10789e-13
f 72/155/34 73/156/34 71/157/33 70/158/33 

v -0.66 -1 0.125359
vt 11.3015 -1.61568e-13
vn 0.5 2.74291e-15 -0.866025
v -0.66 -0.465235 0.125359
vt 11.3015 21.0537
vt 10.8904 21.0537
vt 10.8904 -1.61568e-13
f 74/159/35 75/160/35 73/161/34 72/162/34 

v -0.669647 -1 0.121363
vt 1.82445 1.34548e-13
vn 0.258819 5.17651e-14 -0.965926
v -0.669647 -0.465235 0.121363
vt 1.82445 21.0537
vt 1.41334 21.0537
vt 1.41334 1.34548e-13
f 76/163/36 77/164/36 75/165/35 74/166/35 

vt -8.17403 -3.81776e-12
v -0.68 -1 0.12
vt -7.76292 -3.81776e-12
vn 8.42372e-14 1.02613e-13 -1
vt -7.76292 21.0537
vt -8.17403 21.0537
f 76/167/36 78/168/37 32/169/37 77/170/36 

v -0.690353 -1 0.121363
vt -16.8073 -3.35408e-12
vn -0.258819 4.4774e-14 -0.965926
v -0.690353 -0.465235 0.121363
vt -16.8073 21.0537
vt -17.2184 21.0537
vt -17.2184 -3.32566e-12
f 79/171/38 80/172/38 32/173/37 78/174/37 

vt -24.6922 3.66178e-13
vt -24.6922 21.0537
vt -25.1033 21.0537
vt -25.1033 3.66178e-13
f 44/175/16 36/176/16 80/177/38 79/178/38 

vt -12.1908 36.1668
vn -1.92409e-13 -1 -8.06439e-13
vt -12.5984 36.2205
f 80/179/39 36/76/39 27/75/39 32/180/39 

vt -12.1908 33.1245
vn 1.08009e-14 -1 3.78636e-15
vt -13.006 36.1668
vt -13.3858 36.0095
vt -13.3858 33.2818
vt -13.006 33.1245
vt -12.5984 33.0709
f 53/181/40 34/71/40 36/76/40 80/179/40 32/180/40 77/182/40 75/183/40 59/184/40 57/185/40 55/186/40 

vn -1.88095e-13 -1 6.72388e-13
f 55/186/41 35/72/41 34/71/41 53/181/41 

vt 78.7402 27.6679
vn -3.34534e-15 -7.82071e-13 1
vt 5.71488e-13 27.6679
vt 5.71488e-13 21.0537
vt 11.811 21.0537
vt 12.5984 21.0537
v -0.66 -0.465235 0.2
vt 13.3858 21.0537
v 0.66 -0.465235 0.2
vt 65.3543 21.0537
v 0.68 -0.465235 0.2
vt 66.1417 21.0537
v 0.7 -0.465235 0.2
vt 66.9291 21.0537
vt 78.7402 21.0537
f 25/187/42 8/188/42 9/189/42 35/190/42 55/191/42 81/192/42 82/193/42 83/194/42 84/195/42 24/196/42 

vn -1.21823e-13 -1 3.30876e-15
vt -13.3858 33.0709
v -0.66 -0.465235 1
vt -13.3858 1.5748
v -0.7 -0.465235 1
vt -11.811 1.5748
f 35/72/43 55/186/43 81/197/43 85/198/43 86/199/43 

vn 1.88095e-14 -1 6.72388e-14
f 57/185/44 59/184/44 81/197/44 55/186/44 

vt -65.3543 33.0709
vn -1.41932e-47 -1 2.88384e-29
vt -13.712 33.5321
vt -13.9622 33.8583
vt -14.1196 34.2381
vt -14.1732 34.6457
vt -14.1196 35.0533
vt -13.9622 35.4331
vt -13.712 35.7592
vt -13.3858 36.2205
vt -65.3543 36.2205
v 0.66 -0.465235 0.125359
vt -65.3543 36.0095
v 0.651716 -0.465235 0.131716
vt -65.0282 35.7592
v 0.645359 -0.465235 0.14
vt -64.7779 35.4331
v 0.641363 -0.465235 0.149647
vt -64.6206 35.0533
v 0.64 -0.465235 0.16
vt -64.5669 34.6457
v 0.641363 -0.465235 0.170353
vt -64.6206 34.2381
v 0.645359 -0.465235 0.18
vt -64.7779 33.8583
v 0.651716 -0.465235 0.188284
vt -65.0282 33.5321
v 0.66 -0.465235 0.194641
vt -65.3543 33.2818
f 82/200/45 81/197/45 59/184/45 61/201/45 63/202/45 65/203/45 67/204/45 69/205/45 71/206/45 73/207/45 75/183/45 31/208/45 30/209/45 87/210/45 88/211/45 89/212/45 90/213/45 91/214/45 92/215/45 93/216/45 94/217/45 95/218/45 

vn 1 -2.04434e-13 -5.04025e-15
vt 33.2818 21.0537
vt 36.0095 21.0537
v -0.66 -0.465235 0.04
vt 39.3701 21.0537
v -0.66 -0.405235 0.04
vt 39.3701 23.4159
v -0.66 -0.405235 1
vt 1.5748 23.4159
vt 1.5748 21.0537
f 81/10/46 59/219/46 75/220/46 31/11/46 96/221/46 97/222/46 98/223/46 85/224/46 

vn 0 -1 -0
f 61/201/47 59/184/47 75/183/47 73/207/47 71/206/47 69/205/47 67/204/47 65/203/47 63/202/47 

vn 1.88095e-14 -1 -6.72388e-14
f 32/180/48 31/208/48 75/183/48 77/182/48 

vt -13.3858 39.3701
vn -1.21823e-13 -1 -3.30876e-14
v -0.7 -0.465235 0.04
vt -11.811 39.3701
f 96/225/49 31/208/49 32/180/49 27/75/49 99/226/49 

v -0.7 -0.405235 1
vt -1.5748 23.4159
vn -1 2.73644e-13 3.78019e-15
v -0.7 -0.405235 0.04
vt -39.3701 23.4159
vt -39.3701 21.0537
vt -36.0095 21.0537
vt -33.2818 21.0537
vt -1.5748 21.0537
f 100/227/50 101/228/50 99/229/50 27/29/50 36/230/50 34/231/50 35/30/50 86/232/50 

vt 11.811 1.5748
vn 1.6243e-13 1 -0
vt 13.3858 1.5748
vt 13.3858 39.3701
vt 11.811 39.3701
f 100/233/51 98/234/51 97/235/51 101/236/51 

vt 11.811 23.4159
vn 0 0 1
vt 13.3858 23.4159
f 100/237/52 86/190/52 85/192/52 98/238/52 

vn 0 0 -1
vt -11.811 23.4159
vt -13.3858 23.4159
f 99/60/53 101/239/53 97/240/53 96/68/53 

v 0.669647 -0.465235 0.121363
vt -65.7341 36.1668
vn -1.88095e-14 -1 -6.72388e-14
vt -66.1417 36.2205
f 102/241/54 87/210/54 30/209/54 29/242/54 

v 0.690353 -0.465235 0.198637
vt 66.5493 33.1245
vn 1.08009e-14 1 -3.78636e-15
v 0.7 -0.465235 0.194641
vt 66.9291 33.2818
v 0.7 -0.465235 0.125359
vt 66.9291 36.0095
v 0.690353 -0.465235 0.121363
vt 66.5493 36.1668
vt 66.1417 36.2205
vt 65.7341 36.1668
vt 65.3543 36.0095
vt 65.3543 33.2818
v 0.669647 -0.465235 0.198637
vt 65.7341 33.1245
vt 66.1417 33.0709
f 103/243/55 104/244/55 105/245/55 106/246/55 29/247/55 102/248/55 87/249/55 95/250/55 107/251/55 83/252/55 

vt -66.5493 33.1245
vn 1.88095e-13 -1 6.72388e-13
vt -66.9291 33.2818
vt -66.9291 33.0709
vt -66.1417 33.0709
f 103/253/56 104/254/56 84/255/56 83/256/56 

v 0.7 -1 0.194641
vt 74.5709 5.22391e-13
vn 0.5 -5.03046e-15 0.866025
vt 74.5709 21.0537
vt 74.1598 21.0537
vn 0.258819 5.26104e-15 0.965926
v 0.690353 -1 0.198637
vt 74.1598 5.22391e-13
f 108/257/57 104/258/57 103/259/58 109/260/58 

v 0.708284 -1 0.188284
vt 73.7703 6.84782e-13
vn 0.707107 -1.46242e-14 0.707107
v 0.708284 -0.465235 0.188284
vt 73.7703 21.0537
vt 73.3592 21.0537
vt 73.3592 6.84782e-13
f 110/261/59 111/262/59 104/263/57 108/264/57 

v 0.714641 -1 0.18
vt 67.9563 1.09744e-12
vn 0.866025 -1.66357e-14 0.5
v 0.714641 -0.465235 0.18
vt 67.9563 21.0537
vt 67.5452 21.0537
vt 67.5452 1.06902e-12
f 112/265/60 113/266/60 111/267/59 110/268/59 

v 0.718637 -1 0.170353
vt 57.5253 1.33385e-12
vn 0.965926 -1.6507e-14 0.258819
v 0.718637 -0.465235 0.170353
vt 57.5253 21.0537
vt 57.1142 21.0537
vt 57.1142 1.33385e-12
f 114/269/61 115/270/61 113/271/60 112/272/60 

v 0.72 -1 0.16
vt 43.1881 1.61193e-12
vn 1 -1.43656e-14 1.94832e-13
v 0.72 -0.465235 0.16
vt 43.1881 21.0537
vt 42.7769 21.0537
vt 42.7769 1.58351e-12
f 116/273/62 117/274/62 115/275/61 114/276/61 

v 0.718637 -1 0.149647
vt 25.9216 1.41546e-12
vn 0.965926 -9.9254e-15 -0.258819
v 0.718637 -0.465235 0.149647
vt 25.9216 21.0537
vt 25.5105 21.0537
vt 25.5105 1.41546e-12
f 118/277/63 119/278/63 117/279/62 116/280/62 

v 0.714641 -1 0.14
vt 6.90263 1.16528e-12
vn 0.866025 -1.19764e-14 -0.5
v 0.714641 -0.465235 0.14
vt 6.90263 21.0537
vt 6.49153 21.0537
vt 6.49153 1.16528e-12
f 120/281/64 121/282/64 119/283/63 118/284/63 

v 0.708284 -1 0.131716
vt -12.5727 1.76197e-12
vn 0.707107 -1.89642e-14 -0.707107
v 0.708284 -0.465235 0.131716
vt -12.5727 21.0537
vt -12.9838 21.0537
vt -12.9838 1.76197e-12
f 122/285/65 123/286/65 121/287/64 120/288/64 

v 0.7 -1 0.125359
vt -31.1773 2.07367e-12
vn 0.5 -2.14105e-14 -0.866025
vt -31.1773 21.0537
vt -31.5884 21.0537
vt -31.5884 2.07367e-12
f 124/289/66 105/290/66 123/291/65 122/292/65 

v 0.690353 -1 0.121363
vt -47.6431 1.7895e-12
vn 0.258819 5.2044e-14 -0.965926
vt -47.6431 21.0537
vt -48.0542 21.0537
vt -48.0542 1.7895e-12
f 125/293/67 106/294/67 105/295/66 124/296/66 

vt -61.2593 -4.95212e-12
v 0.68 -1 0.12
vt -60.8482 -4.95212e-12
vn -6.01614e-14 1.27585e-13 -1
vt -60.8482 21.0537
vt -61.2593 21.0537
f 125/297/67 126/298/68 29/299/68 106/300/67 

v 0.669647 -1 0.121363
vt -69.8925 -2.95178e-12
vn -0.258819 6.46514e-14 -0.965926
vt -69.8925 21.0537
vt -70.3036 21.0537
vt -70.3036 -2.95178e-12
f 127/301/69 102/302/69 29/303/68 126/304/68 

v 0.66 -1 0.125359
vt -74.1598 5.75503e-13
vn -0.5 1.8035e-15 -0.866025
vt -74.1598 21.0537
vt -74.5709 21.0537
vt -74.5709 5.75503e-13
f 128/305/70 87/306/70 102/307/69 127/308/69 

v 0.651716 -1 0.131716
vt -73.3592 5.89727e-13
vn -0.707107 4.56764e-15 -0.707107
vt -73.3592 21.0537
vt -73.7703 21.0537
vt -73.7703 6.18149e-13
f 129/309/71 88/310/71 87/311/70 128/312/70 

v 0.645359 -1 0.14
vt -67.5452 6.77939e-13
vn -0.866025 8.80972e-15 -0.5
vt -67.5452 21.0537
vt -67.9563 21.0537
vt -67.9563 6.77939e-13
f 130/313/72 89/314/72 88/315/71 129/316/71 

v 0.641363 -1 0.149647
vt -57.1142 1.13451e-12
vn -0.965926 2.011e-14 -0.258819
vt -57.1142 21.0537
vt -57.5253 21.0537
vt -57.5253 1.13451e-12
f 131/317/73 90/318/73 89/319/72 130/320/72 

v 0.64 -1 0.16
vt -42.7769 2.11981e-12
vn -1 3.08955e-14 -1.88785e-13
vt -42.7769 21.0537
vt -43.1881 21.0537
vt -43.1881 2.14823e-12
f 132/321/74 91/322/74 90/323/73 131/324/73 

v 0.641363 -1 0.170353
vt -25.5105 2.8576e-12
vn -0.965926 3.00186e-14 0.258819
vt -25.5105 21.0537
vt -25.9216 21.0537
vt -25.9216 2.8576e-12
f 133/325/75 92/326/75 91/327/74 132/328/74 

v 0.645359 -1 0.18
vt -6.49153 2.35306e-12
vn -0.866025 2.29474e-14 0.5
vt -6.49153 21.0537
vt -6.90263 21.0537
vt -6.90263 2.35306e-12
f 134/329/76 93/330/76 92/331/75 133/332/75 

v 0.651716 -1 0.188284
vt 12.9838 1.96668e-12
vn -0.707107 2.06037e-14 0.707107
vt 12.9838 21.0537
vt 12.5727 21.0537
vt 12.5727 1.96668e-12
f 135/333/77 94/334/77 93/335/76 134/336/76 

v 0.66 -1 0.194641
vt 31.5884 1.84972e-12
vn -0.5 1.83545e-14 0.866025
vt 31.5884 21.0537
vt 31.1773 21.0537
vt 31.1773 1.87815e-12
f 136/337/78 95/338/78 94/339/77 135/340/77 

v 0.669647 -1 0.198637
vt 48.0542 1.3613e-12
vn -0.258819 1.35803e-14 0.965926
vt 48.0542 21.0537
vt 47.6431 21.0537
vt 47.6431 1.3613e-12
f 137/341/79 107/342/79 95/343/78 136/344/78 

v 0.68 -1 0.2
vt 61.2593 9.74652e-13
vn 5.77119e-14 9.83838e-15 1
vt 61.2593 21.0537
vt 60.8482 21.0537
vt 60.8482 9.46231e-13
f 138/345/80 83/346/80 107/347/79 137/348/79 

vt 70.3036 7.12777e-13
vt 70.3036 21.0537
vt 69.8925 21.0537
vt 69.8925 7.12777e-13
f 109/349/58 103/350/58 83/351/80 138/352/80 

vn -1.88095e-14 -1 6.72388e-14
vt -65.7341 33.1245
f 83/256/81 82/200/81 95/218/81 107/353/81 

vn 1.21823e-13 -1 3.30876e-15
v 0.7 -0.465235 1
vt -66.9291 1.5748
v 0.66 -0.465235 1
vt -65.3543 1.5748
f 82/200/82 83/256/82 84/255/82 139/354/82 140/355/82 

vn 1 2.73644e-13 3.78019e-15
v 0.7 -0.465235 0.04
v 0.7 -0.405235 0.04
v 0.7 -0.405235 1
f 139/224/83 84/10/83 104/219/83 105/220/83 28/11/83 141/221/83 142/222/83 143/223/83 

vt -67.2553 35.7592
vn -2.52822e-15 -1 6.5096e-15
vt -66.9291 36.0095
vt -66.9291 36.2205
vt -78.7402 36.2205
vt -78.7402 33.0709
vt -67.2553 33.5321
vt -67.5056 33.8583
vt -67.6629 34.2381
vt -67.7165 34.6457
vt -67.6629 35.0533
vt -67.5056 35.4331
f 123/356/84 105/357/84 28/358/84 23/359/84 24/360/84 84/255/84 104/254/84 111/361/84 113/362/84 115/363/84 117/364/84 119/365/84 121/366/84 

vt 67.2553 35.7592
vn 2.20516e-14 1 -9.05928e-15
vt 67.2553 33.5321
vt 67.5056 33.8583
vt 67.6629 34.2381
vt 67.7165 34.6457
vt 67.6629 35.0533
vt 67.5056 35.4331
f 123/367/85 105/245/85 104/244/85 111/368/85 113/369/85 115/370/85 117/371/85 119/372/85 121/373/85 

vn 1.92409e-13 -1 -8.06439e-13
vt -66.5493 36.1668
f 29/242/86 28/358/86 105/357/86 106/374/86 

vt -66.9291 39.3701
vn 1.21823e-13 -1 -3.30876e-14
v 0.66 -0.465235 0.04
vt -65.3543 39.3701
f 141/375/87 28/358/87 29/242/87 30/209/87 144/376/87 

v 0.66 -0.405235 1
vn -1 -2.04434e-13 -5.04025e-15
v 0.66 -0.405235 0.04
f 145/227/88 146/228/88 144/229/88 30/29/88 87/230/88 95/231/88 82/30/88 140/232/88 

vt 65.3543 1.5748
vn -1.6243e-13 1 -0
vt 66.9291 1.5748
vt 66.9291 39.3701
vt 65.3543 39.3701
f 145/377/89 143/378/89 142/379/89 146/380/89 

vt 66.9291 23.4159
vt 65.3543 23.4159
f 139/195/52 143/381/52 145/382/52 140/193/52 

vt -66.9291 23.4159
vt -65.3543 23.4159
f 142/383/53 141/65/53 144/67/53 146/384/53 

vt 65.0282 33.5321
vn 0 1 -0
vt 65.0282 35.7592
vt 64.7779 35.4331
vt 64.6206 35.0533
vt 64.5669 34.6457
vt 64.6206 34.2381
vt 64.7779 33.8583
f 94/385/90 95/250/90 87/249/90 88/386/90 89/387/90 90/388/90 91/389/90 92/390/90 93/391/90 

