# Alias OBJ Model File
# Exported from SketchUp, (c) 2000-2012 Trimble Navigation Limited
# File units = meters

mtllib House3_3.mtl

g Mesh1 Group1 Model

usemtl _Brick_Red_11
v 1 -0.194356 -0.529098
vt -1.25 7.31716
vn -1.16787e-15 -0.84964 -0.527363
v -1 -0.194356 -0.529098
vt -3.75 7.31716
v -1 0.153092 -1.08888
vt -3.75 8.14071
v 0.8 0.153092 -1.08888
vt -1.5 8.14071
v 1 0.153092 -1.08888
vt -1.25 8.14071
f 1/1/1 2/2/1 3/3/1 4/4/1 5/5/1 

v 1 -0.514791 0.0516901
vt -1.25 6.49961
vn -3.1122e-15 -0.875578 -0.483077
v 0.845948 -0.514791 0.0516901
vt -1.44257 6.49961
v 0.731707 -0.514791 0.0516901
vt -1.58537 6.49961
v 0.00594755 -0.514791 0.0516901
vt -2.49257 6.49961
v -0.108293 -0.514791 0.0516901
vt -2.63537 6.49961
v -1 -0.514791 0.0516901
vt -3.75 6.49961
vt -3.75 7.32876
vt -1.25 7.32876
f 6/6/2 7/7/2 8/8/2 9/9/2 10/10/2 11/11/2 2/12/2 1/13/2 

usemtl __2
v 0.848102 -0.514791 0.0360226
vt 14.9506 101.88
vn 1.75115e-15 1 9.95648e-14
v 0.846083 -0.514791 0.0206811
vt 15.1494 103.39
v 0.840161 -0.514791 0.00638506
vt 15.7322 104.797
v 0.830741 -0.514791 -0.00589123
vt 16.6593 106.005
v 0.818465 -0.514791 -0.0153112
vt 17.8676 106.933
v 0.804169 -0.514791 -0.0212328
vt 19.2747 107.515
v 0.788827 -0.514791 -0.0232525
vt 20.7847 107.714
v 0.773486 -0.514791 -0.0212328
vt 22.2947 107.515
v 0.75919 -0.514791 -0.0153112
vt 23.7018 106.933
v 0.746913 -0.514791 -0.00589123
vt 24.9101 106.005
v 0.737493 -0.514791 0.00638506
vt 25.8373 104.797
v 0.731572 -0.514791 0.0206811
vt 26.4201 103.39
v 0.729552 -0.514791 0.0360226
vt 26.6189 101.88
v 0.731572 -0.514791 0.0513642
vt 26.4201 100.37
vt 26.4068 100.338
vt 15.1626 100.338
v 0.846083 -0.514791 0.0513642
vt 15.1494 100.37
f 12/14/3 13/15/3 14/16/3 15/17/3 16/18/3 17/19/3 18/20/3 19/21/3 20/22/3 21/23/3 22/24/3 23/25/3 24/26/3 25/27/3 8/28/3 7/29/3 26/30/3 

vt -104.483 55.2172
vn 0.965926 0 -0.258819
vt -102.96 55.2172
vn 1 0 3.90111e-14
v 0.848102 -1.04296 0.0360226
vt -102.96 3.23174
v 0.846083 -1.04296 0.0206811
vt -104.483 3.23174
f 13/31/4 12/32/5 27/33/5 28/34/4 

vt -99.057 55.2172
vt -97.534 55.2172
vn 0.965926 -4.00643e-17 0.258819
v 0.846083 -1.04296 0.0513642
vt -97.534 3.23174
vt -99.057 3.23174
f 12/35/5 26/36/6 29/37/6 27/38/5 

vt -86.9324 55.2172
vt -86.8977 55.2172
vn 0.92388 -7.94432e-17 0.382683
v 0.840161 -0.514791 0.0656602
vt -85.4094 55.2172
vn 0.866025 -4.00643e-17 0.5
v 0.840161 -1.04296 0.0656602
vt -85.4094 3.23174
vt -86.9324 3.23174
f 26/39/6 7/40/7 30/41/8 31/42/8 29/43/6 

v 0.746913 -0.514791 0.0779365
vt 24.9101 97.7547
vn 3.76222e-15 1 -3.29409e-13
v 0.75919 -0.514791 0.0873564
vt 23.7018 96.8275
v 0.773486 -0.514791 0.0932781
vt 22.2947 96.2447
v 0.788827 -0.514791 0.0952978
vt 20.7847 96.0459
v 0.804169 -0.514791 0.0932781
vt 19.2747 96.2447
v 0.818465 -0.514791 0.0873564
vt 17.8676 96.8275
v 0.830741 -0.514791 0.0779365
vt 16.6593 97.7547
vt 15.7322 98.963
v 0.737493 -0.514791 0.0656602
vt 25.8373 98.963
f 32/44/9 33/45/9 34/46/9 35/47/9 36/48/9 37/49/9 38/50/9 30/51/9 7/29/9 8/28/9 39/52/9 

vt 77.7488 55.2172
vn -0.5 0 0.866025
vt 79.2718 55.2172
vn -0.707107 0 0.707107
v 0.746913 -1.04296 0.0779365
vt 79.2718 3.23174
v 0.75919 -1.04296 0.0873564
vt 77.7488 3.23174
f 33/53/10 32/54/11 40/55/11 41/56/10 

vt 92.7183 55.2172
vt 94.2413 55.2172
vn -0.866025 -1.96964e-17 0.5
v 0.737493 -1.04296 0.0656602
vt 94.2413 3.23174
vt 92.7183 3.23174
f 32/57/11 39/58/12 42/59/12 40/60/11 

vt 101.317 55.2172
vt 102.806 55.2172
vn -0.92388 -3.90559e-17 0.382683
vt 102.84 55.2172
vn -0.965926 -1.96964e-17 0.258819
v 0.731572 -1.04296 0.0513642
vt 102.84 3.23174
vt 101.317 3.23174
f 39/61/12 8/62/13 25/63/14 43/64/14 42/65/12 

vt 102.96 55.2172
vt 104.483 55.2172
vn -1 0 -3.89552e-14
v 0.729552 -1.04296 0.0360226
vt 104.483 3.23174
vt 102.96 3.23174
f 25/66/14 24/67/15 44/68/15 43/69/14 

vt 97.534 55.2172
vt 99.057 55.2172
vn -0.965926 0 -0.258819
v 0.731572 -1.04296 0.0206811
vt 99.057 3.23174
vt 97.534 3.23174
f 24/70/15 23/71/16 45/72/16 44/73/15 

vt 85.4094 55.2172
vt 86.9324 55.2172
vn -0.866025 0 -0.5
v 0.737493 -1.04296 0.00638506
vt 86.9324 3.23174
vt 85.4094 3.23174
f 23/74/16 22/75/17 46/76/17 45/77/16 

vt 67.4124 55.2172
vt 68.9354 55.2172
vn -0.707107 0 -0.707107
v 0.746913 -1.04296 -0.00589123
vt 68.9354 3.23174
vt 67.4124 3.23174
f 22/78/17 21/79/18 47/80/18 46/81/17 

vt 44.7695 55.2172
vt 46.2925 55.2172
vn -0.5 0 -0.866025
v 0.75919 -1.04296 -0.0153112
vt 46.2925 3.23174
vt 44.7695 3.23174
f 21/82/18 20/83/19 48/84/19 47/85/18 

vt 19.0237 55.2172
vt 20.5467 55.2172
vn -0.258819 -5.45923e-20 -0.965926
v 0.773486 -1.04296 -0.0212328
vt 20.5467 3.23174
vt 19.0237 3.23174
f 20/86/19 19/87/20 49/88/20 48/89/19 

vt -8.07041 55.2172
vt -6.54739 55.2172
vn 0 -1.09185e-19 -1
v 0.788827 -0.983567 -0.0232525
vt -6.54739 9.07789
v 0.788827 -1.04296 -0.0232525
vt -6.54739 3.23174
vt -8.07041 3.23174
f 19/90/20 18/91/21 50/92/21 51/93/21 49/94/20 

vt -34.6664 9.07789
vt -34.6664 55.2172
vt -33.1434 55.2172
vn 0.258819 -5.45923e-20 -0.965926
v 0.804169 -1.04296 -0.0212328
vt -33.1434 3.23174
vt -34.6664 3.23174
f 50/95/21 18/96/21 17/97/22 52/98/22 51/99/21 

vt -58.9519 55.2172
vt -57.4289 55.2172
vn 0.5 0 -0.866025
v 0.818465 -1.04296 -0.0153112
vt -57.4289 3.23174
vt -58.9519 3.23174
f 17/100/22 16/101/23 53/102/23 52/103/22 

vt -79.2718 55.2172
vt -77.7488 55.2172
vn 0.707107 0 -0.707107
v 0.830741 -1.04296 -0.00589123
vt -77.7488 3.23174
vt -79.2718 3.23174
f 16/104/23 15/105/24 54/106/24 53/107/23 

vt -94.2413 55.2172
vt -92.7183 55.2172
vn 0.866025 0 -0.5
v 0.840161 -1.04296 0.00638506
vt -92.7183 3.23174
vt -94.2413 3.23174
f 15/108/24 14/109/25 55/110/25 54/111/24 

vt -102.84 55.2172
vt -101.317 55.2172
vt -101.317 3.23174
vt -102.84 3.23174
f 14/112/25 13/113/4 28/114/4 55/115/25 

vt 57.4289 55.2172
vn -0.258819 0 0.965926
vt 58.9519 55.2172
vt 58.9519 3.23174
v 0.773486 -1.04296 0.0932781
vt 57.4289 3.23174
f 34/116/26 33/117/10 41/118/10 56/119/26 

vt 33.1434 55.2172
vn 3.89412e-14 0 1
vt 34.6664 55.2172
vt 34.6664 3.23174
v 0.788827 -1.04296 0.0952978
vt 33.1434 3.23174
f 35/120/27 34/121/26 56/122/26 57/123/27 

vt 6.54739 55.2172
vn 0.258819 0 0.965926
vt 8.07041 55.2172
vt 8.07041 3.23174
v 0.804169 -1.04296 0.0932781
vt 6.54739 3.23174
f 36/124/28 35/125/27 57/126/27 58/127/28 

vt -20.5467 55.2172
vn 0.5 0 0.866025
vt -19.0237 55.2172
vt -19.0237 3.23174
v 0.818465 -1.04296 0.0873564
vt -20.5467 3.23174
f 37/128/29 36/129/28 58/130/28 59/131/29 

vt -46.2925 55.2172
vn 0.707107 0 0.707107
vt -44.7695 55.2172
vt -44.7695 3.23174
v 0.830741 -1.04296 0.0779365
vt -46.2925 3.23174
f 38/132/30 37/133/29 59/134/29 60/135/30 

vt -68.9354 55.2172
vt -67.4124 55.2172
vt -67.4124 3.23174
vt -68.9354 3.23174
f 30/136/8 38/137/30 60/138/30 31/139/8 

v 0.0081023 -0.514791 0.0360226
vt 97.6277 101.88
vn -1.56242e-27 1 1.19815e-13
v 0.00608255 -0.514791 0.0206811
vt 97.8265 103.39
v 0.000160938 -0.514791 0.00638506
vt 98.4094 104.797
v -0.00925899 -0.514791 -0.00589123
vt 99.3365 106.005
v -0.0215353 -0.514791 -0.0153112
vt 100.545 106.933
v -0.0358313 -0.514791 -0.0212328
vt 101.952 107.515
v -0.0511729 -0.514791 -0.0232525
vt 103.462 107.714
v -0.0665144 -0.514791 -0.0212328
vt 104.972 107.515
v -0.0808104 -0.514791 -0.0153112
vt 106.379 106.933
v -0.0930867 -0.514791 -0.00589123
vt 107.587 106.005
v -0.102507 -0.514791 0.00638506
vt 108.514 104.797
v -0.108428 -0.514791 0.0206811
vt 109.097 103.39
v -0.110448 -0.514791 0.0360226
vt 109.296 101.88
v -0.108428 -0.514791 0.0513642
vt 109.097 100.37
vt 109.084 100.338
vt 97.8398 100.338
v 0.00608255 -0.514791 0.0513642
vt 97.8265 100.37
f 61/140/31 62/141/31 63/142/31 64/143/31 65/144/31 66/145/31 67/146/31 68/147/31 69/148/31 70/149/31 71/150/31 72/151/31 73/152/31 74/153/31 10/154/31 9/155/31 75/156/31 

vt -115.274 55.2172
vt -113.751 55.2172
v 0.0081023 -1.04296 0.0360226
vt -113.751 3.23174
v 0.00608255 -1.04296 0.0206811
vt -115.274 3.23174
f 62/157/4 61/158/5 76/159/5 77/160/4 

vt -88.2655 55.2172
vt -86.7425 55.2172
vn 0.965926 3.39092e-17 0.258819
v 0.00608255 -1.04296 0.0513642
vt -86.7425 3.23174
vt -88.2655 3.23174
f 61/161/5 75/162/32 78/163/32 76/164/5 

vt -55.2932 55.2172
vt -55.2585 55.2172
vn 0.92388 6.72382e-17 0.382683
v 0.000160938 -0.514791 0.0656602
vt -53.7702 55.2172
vn 0.866025 3.39092e-17 0.5
v 0.000160938 -1.04296 0.0656602
vt -53.7702 3.23174
vt -55.2932 3.23174
f 75/165/32 9/166/33 79/167/34 80/168/34 78/169/32 

v -0.0930867 -0.514791 0.0779365
vt 107.587 97.7547
vn -6.92942e-28 1 -3.96408e-13
v -0.0808104 -0.514791 0.0873564
vt 106.379 96.8275
v -0.0665144 -0.514791 0.0932781
vt 104.972 96.2447
v -0.0511729 -0.514791 0.0952978
vt 103.462 96.0459
v -0.0358313 -0.514791 0.0932781
vt 101.952 96.2447
v -0.0215353 -0.514791 0.0873564
vt 100.545 96.8275
v -0.00925899 -0.514791 0.0779365
vt 99.3365 97.7547
vt 98.4094 98.963
v -0.102507 -0.514791 0.0656602
vt 108.514 98.963
f 81/170/35 82/171/35 83/172/35 84/173/35 85/174/35 86/175/35 87/176/35 79/177/35 9/155/35 10/154/35 88/178/35 

vt 143.341 55.2172
vt 144.864 55.2172
v -0.0930867 -1.04296 0.0779365
vt 144.864 3.23174
v -0.0808104 -1.04296 0.0873564
vt 143.341 3.23174
f 82/179/10 81/180/11 89/181/11 90/182/10 

vt 143.049 55.2172
vt 144.572 55.2172
vn -0.866025 -2.00322e-17 0.5
v -0.102507 -1.04296 0.0656602
vt 144.572 3.23174
vt 143.049 3.23174
f 81/183/11 88/184/36 91/185/36 89/186/11 

vt 132.957 55.2172
vt 134.445 55.2172
vn -0.92388 -3.97216e-17 0.382683
vt 134.48 55.2172
vn -0.965926 -2.00322e-17 0.258819
v -0.108428 -1.04296 0.0513642
vt 134.48 3.23174
vt 132.957 3.23174
f 88/187/36 10/188/37 74/189/38 92/190/38 91/191/36 

vt 113.751 55.2172
vt 115.274 55.2172
v -0.110448 -1.04296 0.0360226
vt 115.274 3.23174
vt 113.751 3.23174
f 74/192/38 73/193/15 93/194/15 92/195/38 

vt 86.7425 55.2172
vt 88.2655 55.2172
v -0.108428 -1.04296 0.0206811
vt 88.2655 3.23174
vt 86.7425 3.23174
f 73/196/15 72/197/16 94/198/16 93/199/15 

vt 53.7702 55.2172
vt 55.2932 55.2172
v -0.102507 -1.04296 0.00638506
vt 55.2932 3.23174
vt 53.7702 3.23174
f 72/200/16 71/201/17 95/202/17 94/203/16 

vt 17.0818 55.2172
vt 18.6048 55.2172
v -0.0930867 -1.04296 -0.00589123
vt 18.6048 3.23174
vt 17.0818 3.23174
f 71/204/17 70/205/18 96/206/18 95/207/17 

vt -20.8227 55.2172
vt -19.2997 55.2172
v -0.0808104 -1.04296 -0.0153112
vt -19.2997 3.23174
vt -20.8227 3.23174
f 70/208/18 69/209/19 97/210/19 96/211/18 

vt -57.36 55.2172
vt -55.837 55.2172
v -0.0665144 -1.04296 -0.0212328
vt -55.837 3.23174
vt -57.36 3.23174
f 69/212/19 68/213/20 98/214/20 97/215/19 

vt -90.0403 55.2172
vt -88.5172 55.2172
v -0.0511729 -0.983567 -0.0232525
vt -88.5172 9.07789
v -0.0511729 -1.04296 -0.0232525
vt -88.5172 3.23174
vt -90.0403 3.23174
f 68/216/20 67/217/21 99/218/21 100/219/21 98/220/20 

vt -116.636 9.07789
vt -116.636 55.2172
vt -115.113 55.2172
v -0.0358313 -1.04296 -0.0212328
vt -115.113 3.23174
vt -116.636 3.23174
f 99/221/21 67/222/21 66/223/22 101/224/22 100/225/21 

vt -135.336 55.2172
vt -133.813 55.2172
v -0.0215353 -1.04296 -0.0153112
vt -133.813 3.23174
vt -135.336 3.23174
f 66/226/22 65/227/23 102/228/23 101/229/22 

vt -144.864 55.2172
vt -143.341 55.2172
v -0.00925899 -1.04296 -0.00589123
vt -143.341 3.23174
vt -144.864 3.23174
f 65/230/23 64/231/24 103/232/24 102/233/23 

vt -144.572 55.2172
vt -143.049 55.2172
v 0.000160938 -1.04296 0.00638506
vt -143.049 3.23174
vt -144.572 3.23174
f 64/234/24 63/235/25 104/236/25 103/237/24 

vt -134.48 55.2172
vt -132.957 55.2172
vt -132.957 3.23174
vt -134.48 3.23174
f 63/238/25 62/239/4 77/240/4 104/241/25 

vt 133.813 55.2172
vt 135.336 55.2172
vt 135.336 3.23174
v -0.0665144 -1.04296 0.0932781
vt 133.813 3.23174
f 83/242/26 82/243/10 90/244/10 105/245/26 

vt 115.113 55.2172
vt 116.636 55.2172
vt 116.636 3.23174
v -0.0511729 -1.04296 0.0952978
vt 115.113 3.23174
f 84/246/27 83/247/26 105/248/26 106/249/27 

vt 88.5172 55.2172
vt 90.0403 55.2172
vt 90.0403 3.23174
v -0.0358313 -1.04296 0.0932781
vt 88.5172 3.23174
f 85/250/28 84/251/27 106/252/27 107/253/28 

vt 55.837 55.2172
vn 0.5 2.01797e-19 0.866025
vt 57.36 55.2172
vt 57.36 3.23174
v -0.0215353 -1.04296 0.0873564
vt 55.837 3.23174
f 86/254/39 85/255/28 107/256/28 108/257/39 

vt 19.2997 55.2172
vn 0.707107 2.01797e-19 0.707107
vt 20.8227 55.2172
vt 20.8227 3.23174
v -0.00925899 -1.04296 0.0779365
vt 19.2997 3.23174
f 87/258/40 86/259/39 108/260/39 109/261/40 

vt -18.6048 55.2172
vt -17.0818 55.2172
vt -17.0818 3.23174
vt -18.6048 3.23174
f 79/262/34 87/263/40 109/264/40 80/265/34 

usemtl FrontColor
v -1 -1 1
vt 7.00039 7.46047
vn -1 1.02918e-14 7.10153e-16
v -1 -0.950229 0.911124
vt 15.748 12.3592
v -1 -0.479829 0.0711239
vt 98.4252 58.6584
v -1 -0.159829 -0.508876
vt 155.512 90.1544
v -1 0.162929 -1.02888
vt 206.693 121.922
v -1 0.320171 -1.02888
vt 206.693 137.399
v -1 0.320171 -1.08888
vt 212.598 137.399
vt 212.598 120.954
vt 157.502 86.7561
vt 100.338 55.2172
v -1 -1 0.911124
vt 15.748 7.46047
v -1 -1 0.918134
vt 15.0581 7.46047
f 110/266/41 111/267/41 112/268/41 113/269/41 114/270/41 115/271/41 116/272/41 3/273/41 2/274/41 11/275/41 117/276/41 118/277/41 

usemtl _Brick_Red_11
vt 3.75 6.4994
vn 1.35366e-14 0.872506 0.488603
vt 3.75 5.29597
vt 3.75 5.16864
v 1 -1 1
vt 1.25 5.16864
v 1 -0.479829 0.0711239
vt 1.25 6.4994
f 112/278/42 111/279/42 110/280/42 119/281/42 120/282/42 

usemtl FrontColor
vt -1.02326e-12 7.00039
vn -1.90585e-14 -1 4.65601e-13
vt -196.85 7.00039
vt -196.85 15.0581
v 1 -1 0.918134
vt -1.02326e-12 15.0581
f 119/283/43 110/284/43 118/285/43 121/286/43 

usemtl _Brick_Red_11
vt -6.43528 3.50705
vn 1 -2.27853e-14 -9.32455e-15
vt -7.135 3.94136
v 1 0.320171 -1.08888
vt -7.135 4.15021
v 1 0.320171 -1.02888
vt -7.06 4.15021
v 1 0.162929 -1.02888
vt -7.06 3.95366
v 1 -0.159829 -0.508876
vt -6.41 3.55021
vt -5.685 3.15021
vt -4.5239 2.5
vt -4.62624 2.5
vt -5.70929 3.10651
f 1/287/44 5/288/44 122/289/44 123/290/44 124/291/44 125/292/44 120/293/44 119/294/44 121/295/44 6/296/44 

vt -1.5 3.94136
vn -4.0427e-14 -6.91326e-15 -1
v 0.8 0.320171 -1.08888
vt -1.5 4.15021
vt -1.25 4.15021
vt -1.25 3.94136
f 4/297/45 126/298/45 122/299/45 5/300/45 

vt -3.75 3.94136
vn -3.61946e-32 -1.38265e-14 -1
vt -3.75 4.15021
f 3/301/46 116/302/46 126/298/46 4/297/46 

vt 3.75 7.135
vn 0 1 -0
vt 3.75 7.06
v 0.8 0.320171 -1.02888
vt 1.5 7.06
vt 1.5 7.135
f 116/303/47 115/304/47 127/305/47 126/306/47 

vt 1.5 4.15021
vn 1.71355e-15 -6.69089e-28 1
vt 3.75 4.15021
vt 3.75 3.95366
vt 1.25 3.95366
vt 1.25 4.15021
f 127/307/48 115/308/48 114/309/48 124/310/48 123/311/48 

vt 3.75 7.31844
vn 1.33793e-15 0.84964 0.527363
vt 1.25 7.31844
vt 1.25 8.08347
vt 3.75 8.08347
f 113/312/49 125/313/49 124/314/49 114/315/49 

vt 3.75 7.32748
vn 4.48544e-15 0.875578 0.483077
vt 3.75 6.49946
vt 1.25 6.49946
vt 1.25 7.32748
f 113/316/50 112/317/50 120/318/50 125/319/50 

vt 1.25 7.135
vn -4.909e-14 1 -1.20477e-26
vt 1.25 7.06
f 122/320/51 126/306/51 127/305/51 123/321/51 

