# Alias OBJ Model File
# Exported from SketchUp, (c) 2000-2012 Trimble Navigation Limited
# File units = meters

mtllib House_1_3.mtl

g Mesh1 Group1 Model

usemtl _Brick_Red_11
v -1 0.153092 -1.07867
vt -1.25 8.14071
vn 1.16787e-15 -0.84964 -0.527363
v -0.8 0.153092 -1.07867
vt -1.5 8.14071
v 1 0.153092 -1.07867
vt -3.75 8.14071
v 1 -0.194356 -0.51889
vt -3.75 7.31716
v -1 -0.194356 -0.51889
vt -1.25 7.31716
f 1/1/1 2/2/1 3/3/1 4/4/1 5/5/1 

vt -1.25 3.94136
vn 4.0427e-14 -6.91326e-15 -1
v -1 0.320171 -1.07867
vt -1.25 4.15021
v -0.8 0.320171 -1.07867
vt -1.5 4.15021
vt -1.5 3.94136
f 1/6/2 6/7/2 7/8/2 2/9/2 

v -1 -0.514791 0.0618986
vt -5.70929 3.10651
vn -1 -2.27853e-14 -9.32455e-15
v -1 -1 0.928343
vt -4.62624 2.5
v -1 -1 1.01021
vt -4.5239 2.5
v -1 -0.479829 0.0813324
vt -5.685 3.15021
v -1 -0.159829 -0.498668
vt -6.41 3.55021
v -1 0.162929 -1.01867
vt -7.06 3.95366
v -1 0.320171 -1.01867
vt -7.06 4.15021
vt -7.135 4.15021
vt -7.135 3.94136
vt -6.43528 3.50705
f 8/10/3 9/11/3 10/12/3 11/13/3 12/14/3 13/15/3 14/16/3 6/17/3 1/18/3 5/19/3 

usemtl FrontColor
vt -1.02326e-12 15.0581
vn 1.90585e-14 -1 4.65601e-13
v 1 -1 0.928343
vt -196.85 15.0581
v 1 -1 1.01021
vt -196.85 7.00039
vt -1.02326e-12 7.00039
f 9/20/4 15/21/4 16/22/4 10/23/4 

vt 15.0581 7.46047
vn 1 1.02918e-14 7.10153e-16
v 1 -1 0.921332
vt 15.748 7.46047
v 1 -0.514791 0.0618986
vt 100.338 55.2172
vt 157.502 86.7561
vt 212.598 120.954
v 1 0.320171 -1.07867
vt 212.598 137.399
v 1 0.320171 -1.01867
vt 206.693 137.399
v 1 0.162929 -1.01867
vt 206.693 121.922
v 1 -0.159829 -0.498668
vt 155.512 90.1544
v 1 -0.479829 0.0813324
vt 98.4252 58.6584
v 1 -0.950229 0.921332
vt 15.748 12.3592
vt 7.00039 7.46047
f 15/24/5 17/25/5 18/26/5 4/27/5 3/28/5 19/29/5 20/30/5 21/31/5 22/32/5 23/33/5 24/34/5 16/35/5 

usemtl _Brick_Red_11
vt -1.25 7.32876
vn 3.1122e-15 -0.875578 -0.483077
vt -3.75 7.32876
vt -3.75 6.49961
v 0.108293 -0.514791 0.0618986
vt -2.63537 6.49961
v -0.00594755 -0.514791 0.0618986
vt -2.49257 6.49961
v -0.731707 -0.514791 0.0618986
vt -1.58537 6.49961
v -0.845948 -0.514791 0.0618986
vt -1.44257 6.49961
vt -1.25 6.49961
f 5/36/6 4/37/6 18/38/6 25/39/6 26/40/6 27/41/6 28/42/6 8/43/6 

usemtl __2
v -0.00608255 -0.514791 0.0615727
vt 97.8265 100.37
vn 1.56242e-27 1 1.19815e-13
vt 97.8398 100.338
vt 109.084 100.338
v 0.108428 -0.514791 0.0615727
vt 109.097 100.37
v 0.110448 -0.514791 0.0462311
vt 109.296 101.88
v 0.108428 -0.514791 0.0308896
vt 109.097 103.39
v 0.102507 -0.514791 0.0165936
vt 108.514 104.797
v 0.0930867 -0.514791 0.00431727
vt 107.587 106.005
v 0.0808104 -0.514791 -0.00510266
vt 106.379 106.933
v 0.0665144 -0.514791 -0.0110243
vt 104.972 107.515
v 0.0511729 -0.514791 -0.013044
vt 103.462 107.714
v 0.0358313 -0.514791 -0.0110243
vt 101.952 107.515
v 0.0215353 -0.514791 -0.00510266
vt 100.545 106.933
v 0.00925899 -0.514791 0.00431727
vt 99.3365 106.005
v -0.000160938 -0.514791 0.0165936
vt 98.4094 104.797
v -0.00608255 -0.514791 0.0308896
vt 97.8265 103.39
v -0.0081023 -0.514791 0.0462311
vt 97.6277 101.88
f 29/44/7 26/45/7 25/46/7 30/47/7 31/48/7 32/49/7 33/50/7 34/51/7 35/52/7 36/53/7 37/54/7 38/55/7 39/56/7 40/57/7 41/58/7 42/59/7 43/60/7 

v -0.000160938 -0.514791 0.0758687
vt -53.7702 55.2172
vn -0.866025 9.25925e-17 0.5
vt -55.2585 55.2172
vn -0.92388 1.83601e-16 0.382683
vt -55.2932 55.2172
vn -0.965926 9.25925e-17 0.258819
v -0.00608255 -1 0.0615727
vt -55.2932 7.46047
v -0.000160938 -1 0.0758687
vt -53.7702 7.46047
f 44/61/8 26/62/9 29/63/10 45/64/10 46/65/8 

v 0.102507 -0.514791 0.0758687
vt 108.514 98.963
vn 6.92942e-28 1 -3.96408e-13
vt 98.4094 98.963
v 0.00925899 -0.514791 0.088145
vt 99.3365 97.7547
v 0.0215353 -0.514791 0.0975649
vt 100.545 96.8275
v 0.0358313 -0.514791 0.103487
vt 101.952 96.2447
v 0.0511729 -0.514791 0.105506
vt 103.462 96.0459
v 0.0665144 -0.514791 0.103487
vt 104.972 96.2447
v 0.0808104 -0.514791 0.0975649
vt 106.379 96.8275
v 0.0930867 -0.514791 0.088145
vt 107.587 97.7547
f 47/66/11 25/46/11 26/45/11 44/67/11 48/68/11 49/69/11 50/70/11 51/71/11 52/72/11 53/73/11 54/74/11 

v 0.102507 -1 0.0758687
vt 132.957 7.46047
vn 0.866025 -1.44069e-17 0.5
v 0.108428 -1 0.0615727
vt 134.48 7.46047
vn 0.965926 -1.44069e-17 0.258819
vt 134.48 55.2172
vt 134.445 55.2172
vn 0.92388 -2.85672e-17 0.382683
vt 132.957 55.2172
f 55/75/12 56/76/13 30/77/13 25/78/14 47/79/12 

vt 113.751 7.46047
v 0.110448 -1 0.0462311
vt 115.274 7.46047
vn 1 0 -3.9585e-14
vt 115.274 55.2172
vt 113.751 55.2172
f 56/80/13 57/81/15 31/82/15 30/83/13 

vt 86.7425 7.46047
v 0.108428 -1 0.0308896
vt 88.2655 7.46047
vn 0.965926 0 -0.258819
vt 88.2655 55.2172
vt 86.7425 55.2172
f 57/84/15 58/85/16 32/86/16 31/87/15 

vt 53.7702 7.46047
v 0.102507 -1 0.0165936
vt 55.2932 7.46047
vn 0.866025 0 -0.5
vt 55.2932 55.2172
vt 53.7702 55.2172
f 58/88/16 59/89/17 33/90/17 32/91/16 

vt 17.0818 7.46047
v 0.0930867 -1 0.00431727
vt 18.6048 7.46047
vn 0.707107 0 -0.707107
vt 18.6048 55.2172
vt 17.0818 55.2172
f 59/92/17 60/93/18 34/94/18 33/95/17 

v 0.0808104 -1 -0.00510266
vt -19.2997 7.46047
vn 0.5 0 -0.866025
vt -19.2997 55.2172
vt -20.8227 55.2172
vt -20.8227 7.46047
f 61/96/19 35/97/19 34/98/18 60/99/18 

v 0.0665144 -1 -0.0110243
vt -55.837 7.46047
vn 0.258819 -7.58803e-20 -0.965926
vt -55.837 55.2172
vt -57.36 55.2172
vt -57.36 7.46047
f 62/100/20 36/101/20 35/102/19 61/103/19 

v 0.0511729 -1 -0.013044
vt -88.5172 7.46047
vn 0 -7.58803e-20 -1
v 0.0511729 -0.983567 -0.013044
vt -88.5172 9.07789
vt -88.5172 55.2172
vt -90.0403 55.2172
vt -90.0403 7.46047
f 63/104/21 64/105/21 37/106/21 36/107/20 62/108/20 

v 0.0358313 -1 -0.0110243
vt -115.113 7.46047
vn -0.258819 0 -0.965926
vt -115.113 55.2172
vt -116.636 55.2172
vt -116.636 9.07789
vt -116.636 7.46047
f 65/109/22 38/110/22 37/111/21 64/112/21 63/113/21 

v 0.0215353 -1 -0.00510266
vt -133.813 7.46047
vn -0.5 0 -0.866025
vt -133.813 55.2172
vt -135.336 55.2172
vt -135.336 7.46047
f 66/114/23 39/115/23 38/116/22 65/117/22 

v 0.00925899 -1 0.00431727
vt -143.341 7.46047
vn -0.707107 0 -0.707107
vt -143.341 55.2172
vt -144.864 55.2172
vt -144.864 7.46047
f 67/118/24 40/119/24 39/120/23 66/121/23 

vt -143.049 55.2172
vn -0.866025 0 -0.5
vt -144.572 55.2172
vt -144.572 7.46047
v -0.000160938 -1 0.0165936
vt -143.049 7.46047
f 41/122/25 40/123/24 67/124/24 68/125/25 

vt -132.957 55.2172
vn -0.965926 0 -0.258819
vt -134.48 55.2172
vt -134.48 7.46047
v -0.00608255 -1 0.0308896
vt -132.957 7.46047
f 42/126/26 41/127/25 68/128/25 69/129/26 

vt -113.751 55.2172
vn -1 0 3.9571e-14
vt -115.274 55.2172
vt -115.274 7.46047
v -0.0081023 -1 0.0462311
vt -113.751 7.46047
f 43/130/27 42/131/26 69/132/26 70/133/27 

vt -86.7425 55.2172
vt -88.2655 55.2172
vt -88.2655 7.46047
vt -86.7425 7.46047
f 29/134/10 43/135/27 70/136/27 45/137/10 

v 0.0930867 -1 0.088145
vt 143.049 7.46047
vn 0.707107 0 0.707107
vt 144.572 7.46047
vt 144.572 55.2172
vt 143.049 55.2172
f 71/138/28 55/139/12 47/140/12 54/141/28 

vt 144.864 7.46047
vt 144.864 55.2172
vt 143.341 55.2172
vn 0.5 0 0.866025
v 0.0808104 -1 0.0975649
vt 143.341 7.46047
f 71/142/28 54/143/28 53/144/29 72/145/29 

vt 135.336 7.46047
vt 135.336 55.2172
vt 133.813 55.2172
vn 0.258819 0 0.965926
v 0.0665144 -1 0.103487
vt 133.813 7.46047
f 72/146/29 53/147/29 52/148/30 73/149/30 

vt 116.636 7.46047
vt 116.636 55.2172
vt 115.113 55.2172
vn -3.88432e-14 0 1
v 0.0511729 -1 0.105506
vt 115.113 7.46047
f 73/150/30 52/151/30 51/152/31 74/153/31 

vt 90.0403 7.46047
vt 90.0403 55.2172
vt 88.5172 55.2172
vn -0.258819 0 0.965926
v 0.0358313 -1 0.103487
vt 88.5172 7.46047
f 74/154/31 51/155/31 50/156/32 75/157/32 

vt 57.36 7.46047
vt 57.36 55.2172
vt 55.837 55.2172
vn -0.5 0 0.866025
v 0.0215353 -1 0.0975649
vt 55.837 7.46047
f 75/158/32 50/159/32 49/160/33 76/161/33 

vt 20.8227 7.46047
vt 20.8227 55.2172
vt 19.2997 55.2172
vn -0.707107 0 0.707107
v 0.00925899 -1 0.088145
vt 19.2997 7.46047
f 76/162/33 49/163/33 48/164/34 77/165/34 

vt -17.0818 55.2172
vt -18.6048 55.2172
vt -18.6048 7.46047
vt -17.0818 7.46047
f 48/166/34 44/167/8 46/168/8 77/169/34 

v -0.846083 -0.514791 0.0615727
vt 15.1494 100.37
vn -1.75115e-15 1 9.95648e-14
vt 15.1626 100.338
vt 26.4068 100.338
v -0.731572 -0.514791 0.0615727
vt 26.4201 100.37
v -0.729552 -0.514791 0.0462311
vt 26.6189 101.88
v -0.731572 -0.514791 0.0308896
vt 26.4201 103.39
v -0.737493 -0.514791 0.0165936
vt 25.8373 104.797
v -0.746913 -0.514791 0.00431727
vt 24.9101 106.005
v -0.75919 -0.514791 -0.00510266
vt 23.7018 106.933
v -0.773486 -0.514791 -0.0110243
vt 22.2947 107.515
v -0.788827 -0.514791 -0.013044
vt 20.7847 107.714
v -0.804169 -0.514791 -0.0110243
vt 19.2747 107.515
v -0.818465 -0.514791 -0.00510266
vt 17.8676 106.933
v -0.830741 -0.514791 0.00431727
vt 16.6593 106.005
v -0.840161 -0.514791 0.0165936
vt 15.7322 104.797
v -0.846083 -0.514791 0.0308896
vt 15.1494 103.39
v -0.848102 -0.514791 0.0462311
vt 14.9506 101.88
f 78/170/35 28/171/35 27/172/35 79/173/35 80/174/35 81/175/35 82/176/35 83/177/35 84/178/35 85/179/35 86/180/35 87/181/35 88/182/35 89/183/35 90/184/35 91/185/35 92/186/35 

v -0.840161 -0.514791 0.0758687
vt -85.4094 55.2172
vn -0.866025 -5.61706e-17 0.5
vt -86.8977 55.2172
vn -0.92388 -1.1138e-16 0.382683
vt -86.9324 55.2172
vn -0.965926 -5.61706e-17 0.258819
v -0.846083 -1 0.0615727
vt -86.9324 7.46047
v -0.840161 -1 0.0758687
vt -85.4094 7.46047
f 93/187/36 28/188/37 78/189/38 94/190/38 95/191/36 

v -0.737493 -0.514791 0.0758687
vt 25.8373 98.963
vn -3.76222e-15 1 -3.29409e-13
vt 15.7322 98.963
v -0.830741 -0.514791 0.088145
vt 16.6593 97.7547
v -0.818465 -0.514791 0.0975649
vt 17.8676 96.8275
v -0.804169 -0.514791 0.103487
vt 19.2747 96.2447
v -0.788827 -0.514791 0.105506
vt 20.7847 96.0459
v -0.773486 -0.514791 0.103487
vt 22.2947 96.2447
v -0.75919 -0.514791 0.0975649
vt 23.7018 96.8275
v -0.746913 -0.514791 0.088145
vt 24.9101 97.7547
f 96/192/39 27/172/39 28/171/39 93/193/39 97/194/39 98/195/39 99/196/39 100/197/39 101/198/39 102/199/39 103/200/39 

v -0.737493 -1 0.0758687
vt 101.317 7.46047
vn 0.866025 9.7125e-18 0.5
v -0.731572 -1 0.0615727
vt 102.84 7.46047
vn 0.965926 9.7125e-18 0.258819
vt 102.84 55.2172
vt 102.806 55.2172
vn 0.92388 1.92588e-17 0.382683
vt 101.317 55.2172
f 104/201/40 105/202/41 79/203/41 27/204/42 96/205/40 

vt 102.96 7.46047
v -0.729552 -1 0.0462311
vt 104.483 7.46047
vt 104.483 55.2172
vt 102.96 55.2172
f 105/206/41 106/207/15 80/208/15 79/209/41 

vt 97.534 7.46047
v -0.731572 -1 0.0308896
vt 99.057 7.46047
vt 99.057 55.2172
vt 97.534 55.2172
f 106/210/15 107/211/16 81/212/16 80/213/15 

vt 85.4094 7.46047
v -0.737493 -1 0.0165936
vt 86.9324 7.46047
vt 86.9324 55.2172
vt 85.4094 55.2172
f 107/214/16 108/215/17 82/216/17 81/217/16 

vt 67.4124 7.46047
v -0.746913 -1 0.00431727
vt 68.9354 7.46047
vt 68.9354 55.2172
vt 67.4124 55.2172
f 108/218/17 109/219/18 83/220/18 82/221/17 

v -0.75919 -1 -0.00510266
vt 46.2925 7.46047
vt 46.2925 55.2172
vt 44.7695 55.2172
vt 44.7695 7.46047
f 110/222/19 84/223/19 83/224/18 109/225/18 

v -0.773486 -1 -0.0110243
vt 20.5467 7.46047
vn 0.258819 -1.89701e-19 -0.965926
vt 20.5467 55.2172
vt 19.0237 55.2172
vt 19.0237 7.46047
f 111/226/43 85/227/43 84/228/19 110/229/19 

v -0.788827 -1 -0.013044
vt -6.54739 7.46047
vn -4.05929e-16 -1.89701e-19 -1
v -0.788827 -0.983567 -0.013044
vt -6.54739 9.07789
vt -6.54739 55.2172
vt -8.07041 55.2172
vt -8.07041 7.46047
f 112/230/44 113/231/44 86/232/44 85/233/43 111/234/43 

v -0.804169 -1 -0.0110243
vt -33.1434 7.46047
vt -33.1434 55.2172
vt -34.6664 55.2172
vt -34.6664 9.07789
vt -34.6664 7.46047
f 114/235/22 87/236/22 86/237/44 113/238/44 112/239/44 

v -0.818465 -1 -0.00510266
vt -57.4289 7.46047
vt -57.4289 55.2172
vt -58.9519 55.2172
vt -58.9519 7.46047
f 115/240/23 88/241/23 87/242/22 114/243/22 

v -0.830741 -1 0.00431727
vt -77.7488 7.46047
vt -77.7488 55.2172
vt -79.2718 55.2172
vt -79.2718 7.46047
f 116/244/24 89/245/24 88/246/23 115/247/23 

vt -92.7183 55.2172
vt -94.2413 55.2172
vt -94.2413 7.46047
v -0.840161 -1 0.0165936
vt -92.7183 7.46047
f 90/248/25 89/249/24 116/250/24 117/251/25 

vt -101.317 55.2172
vt -102.84 55.2172
vt -102.84 7.46047
v -0.846083 -1 0.0308896
vt -101.317 7.46047
f 91/252/26 90/253/25 117/254/25 118/255/26 

vt -102.96 55.2172
vn -1 0 3.9613e-14
vt -104.483 55.2172
vt -104.483 7.46047
v -0.848102 -1 0.0462311
vt -102.96 7.46047
f 92/256/45 91/257/26 118/258/26 119/259/45 

vt -97.534 55.2172
vt -99.057 55.2172
vt -99.057 7.46047
vt -97.534 7.46047
f 78/260/38 92/261/45 119/262/45 94/263/38 

v -0.746913 -1 0.088145
vt 92.7183 7.46047
vt 94.2413 7.46047
vt 94.2413 55.2172
vt 92.7183 55.2172
f 120/264/28 104/265/40 96/266/40 103/267/28 

vt 79.2718 7.46047
vt 79.2718 55.2172
vt 77.7488 55.2172
v -0.75919 -1 0.0975649
vt 77.7488 7.46047
f 120/268/28 103/269/28 102/270/29 121/271/29 

vt 58.9519 7.46047
vt 58.9519 55.2172
vt 57.4289 55.2172
v -0.773486 -1 0.103487
vt 57.4289 7.46047
f 121/272/29 102/273/29 101/274/30 122/275/30 

vt 34.6664 7.46047
vt 34.6664 55.2172
vt 33.1434 55.2172
vn -3.9585e-14 0 1
v -0.788827 -1 0.105506
vt 33.1434 7.46047
f 122/276/30 101/277/30 100/278/46 123/279/46 

vt 8.07041 7.46047
vt 8.07041 55.2172
vt 6.54739 55.2172
v -0.804169 -1 0.103487
vt 6.54739 7.46047
f 123/280/46 100/281/46 99/282/32 124/283/32 

vt -19.0237 7.46047
vt -19.0237 55.2172
vt -20.5467 55.2172
v -0.818465 -1 0.0975649
vt -20.5467 7.46047
f 124/284/32 99/285/32 98/286/33 125/287/33 

vt -44.7695 7.46047
vt -44.7695 55.2172
vt -46.2925 55.2172
v -0.830741 -1 0.088145
vt -46.2925 7.46047
f 125/288/33 98/289/33 97/290/34 126/291/34 

vt -67.4124 55.2172
vt -68.9354 55.2172
vt -68.9354 7.46047
vt -67.4124 7.46047
f 97/292/34 93/293/36 95/294/36 126/295/34 

usemtl _Brick_Red_11
vn 3.61946e-32 -1.38265e-14 -1
vt -3.75 4.15021
vt -3.75 3.94136
f 2/9/47 7/8/47 19/296/47 3/297/47 

vt 1.5 7.135
vn 0 1 -0
v -0.8 0.320171 -1.01867
vt 1.5 7.06
vt 3.75 7.06
vt 3.75 7.135
f 7/298/48 127/299/48 20/300/48 19/301/48 

vt 1.25 7.06
vn 4.909e-14 1 -1.20477e-26
vt 1.25 7.135
f 14/302/49 127/299/49 7/298/49 6/303/49 

vt 1.25 4.15021
vn -1.71355e-15 -6.69089e-28 1
vt 1.25 3.95366
vt 3.75 3.95366
vt 3.75 4.15021
vt 1.5 4.15021
f 14/304/50 13/305/50 21/306/50 20/307/50 127/308/50 

vt 3.75 8.08347
vn -1.33793e-15 0.84964 0.527363
vt 1.25 8.08347
vt 1.25 7.31844
vt 3.75 7.31844
f 21/309/51 13/310/51 12/311/51 22/312/51 

vt 1.25 7.32748
vn -4.48544e-15 0.875578 0.483077
vt 1.25 6.49946
vt 3.75 6.49946
vt 3.75 7.32748
f 12/313/52 11/314/52 23/315/52 22/316/52 

vt 1.25 6.4994
vn -1.35366e-14 0.872506 0.488603
vt 1.25 5.16864
vt 3.75 5.16864
vt 3.75 5.29597
vt 3.75 6.4994
f 11/317/53 10/318/53 16/319/53 24/320/53 23/321/53 

