# Alias OBJ Model File
# Exported from SketchUp, (c) 2000-2012 Trimble Navigation Limited
# File units = meters

mtllib Wall_Door_6.mtl

g Mesh1 Group1 Model

usemtl FrontColor
v 1 -0.839829 0.12
vt 78.7402 6.30593
vn -6.1706e-17 2.79158e-14 1
v 1 1 0.12
vt 78.7402 78.7402
v -1 1 0.12
vt -2.13785e-15 78.7402
v -1 -0.839829 0.12
vt 1.58948e-12 6.30593
v -0.68 -0.839829 0.12
vt 12.5984 6.30593
v -0.68 0.120171 0.12
vt 12.5984 44.1012
v 0.68 0.120171 0.12
vt 66.1417 44.1012
v 0.68 -0.839829 0.12
vt 66.1417 6.30593
f 1/1/1 2/2/1 3/3/1 4/4/1 5/5/1 6/6/1 7/7/1 8/8/1 

v 1 1 -4.50751e-14
vt 78.7402 39.3701
vn -3.22672e-16 1 -5.26394e-15
v 0.604 1 4.76286e-14
vt 63.1496 39.3701
v -0.604 1 4.58522e-14
vt 15.5906 39.3701
v -1 1 -4.55191e-14
vt 2.52781e-13 39.3701
vt 2.54073e-14 34.6457
vt 78.7402 34.6457
f 9/9/2 10/10/2 11/11/2 12/12/2 3/13/2 2/14/2 

v 0.631316 0.972061 5.77316e-15
vt -64.2251 77.6402
vn -1.33702e-13 -1.37607e-13 -1
vt -63.1496 78.7402
vt -78.7402 78.7402
v 1 0.76 1.44329e-15
vt -78.7402 69.2913
v 0.962592 0.771288 1.44329e-15
vt -77.2674 69.7357
v 0.92574 0.784276 2.22045e-15
vt -75.8166 70.2471
v 0.889522 0.798937 2.88658e-15
vt -74.3906 70.8243
v 0.854012 0.815241 2.88658e-15
vt -72.9926 71.4662
v 0.819285 0.833152 3.66374e-15
vt -71.6254 72.1713
v 0.785414 0.852634 4.32987e-15
vt -70.2919 72.9383
v 0.752471 0.873645 4.32987e-15
vt -68.9949 73.7656
v 0.720524 0.896142 4.32987e-15
vt -67.7371 74.6513
v 0.689639 0.920078 5.10703e-15
vt -66.5212 75.5936
v 0.659883 0.945402 5.77316e-15
vt -65.3497 76.5906
v 0.640638 0.963362 5.77316e-15
vt -64.5921 77.2977
f 13/15/3 10/16/3 9/17/3 14/18/3 15/19/3 16/20/3 17/21/3 18/22/3 19/23/3 20/24/3 21/25/3 22/26/3 23/27/3 24/28/3 25/29/3 

v 0.631316 0.972061 -0.0273164
vt 40.4455 10.6151
vn 0.698837 0.715281 1.48306e-15
vt 39.3701 12.1534
vn 0.715026 0.699098 1.70188e-16
vt 39.3701 10.6151
f 26/30/4 10/31/5 13/32/4

v -0.631316 0.972061 -0.0273164
vt -14.5151 27.2393
vn -3.1804e-16 0.715281 -0.698837
vt -15.5906 28.7777
vn -2.80575e-16 0.699098 -0.715026
vt -63.1496 28.7777
vt -64.2251 27.2393
f 27/33/6 11/34/7 10/35/7 26/36/6 

vt -39.3701 67.2005
vn -0.715026 0.699098 -8.50941e-17
vt -40.4455 65.6622
vn -0.698837 0.715281 -2.63803e-15
v -0.631316 0.972061 4.55191e-14
vt -39.3701 65.6622
f 11/37/8 27/38/9 28/39/9

vt -40.4455 63.5843
v -0.659883 0.945402 -0.0558827
vt -41.5702 62.046
vn -0.66537 0.746514 -3.7208e-15
v -0.659883 0.945402 4.51861e-14
vt -39.3701 62.046
v -0.640638 0.963362 4.51861e-14
vt -39.3701 63.0823
vn -0.682282 0.731089 -5.18958e-15
vt -39.3701 63.5843
f 27/40/9 29/41/10 30/42/10 31/43/11 28/44/9 

vt -14.5151 23.4032
vt -64.2251 23.4032
v 0.640638 0.963362 -0.0366384
vt -64.5921 22.9012
vn -3.55339e-16 0.731089 -0.682282
v 0.659883 0.945402 -0.0558827
vt -65.3497 21.8649
vn -2.49554e-16 0.746514 -0.66537
vt -13.3904 21.8649
f 27/45/6 26/46/6 32/47/12 33/48/13 29/49/13 

vt 40.8125 5.51627
vn 0.682282 0.731089 2.79515e-15
vt 40.4455 6.01827
vt 39.3701 6.01827
vt 39.3701 5.51627
vt 39.3701 4.47993
vn 0.66537 0.746514 1.01776e-15
vt 41.5702 4.47993
f 32/50/14 26/51/4 13/52/4 25/53/14 24/54/15 33/55/15 

v 0.689639 0.920078 -0.0856392
vt 42.7417 -1.66623
vn 0.630508 0.776183 -1.76308e-15
vt 41.5702 -0.127895
vt 39.3701 -0.127895
vt 39.3701 -1.66623
f 34/56/16 33/57/15 24/58/15 23/59/16 

v -0.689639 0.920078 -0.0856392
vt -12.2189 16.443
vn -1.82731e-16 0.776183 -0.630508
vt -13.3904 17.9814
vt -65.3497 17.9814
vt -66.5212 16.443
f 35/60/17 29/61/13 33/62/13 34/63/17 

vt -41.5702 59.8365
vt -42.7417 58.2982
vn -0.630508 0.776183 -1.70779e-15
v -0.689639 0.920078 4.4742e-14
vt -39.3701 58.2982
vt -39.3701 59.8365
f 29/64/10 35/65/18 36/66/18 30/67/10 

vt -42.7417 55.9649
v -0.720524 0.896142 -0.116524
vt -43.9576 54.4266
vn -0.594325 0.804225 3.18832e-17
v -0.720524 0.896142 4.44089e-14
vt -39.3701 54.4266
vt -39.3701 55.9649
f 35/68/18 37/69/19 38/70/19 36/71/18 

vt -11.003 10.9851
vn -3.45522e-16 0.804225 -0.594325
vt -12.2189 12.5234
vt -66.5212 12.5234
v 0.720524 0.896142 -0.116524
vt -67.7371 10.9851
f 37/72/20 35/73/17 34/74/17 39/75/20 

vt 43.9576 -7.81051
vn 0.594325 0.804225 -1.8642e-15
vt 42.7417 -6.27218
vt 39.3701 -6.27218
vt 39.3701 -7.81051
f 39/76/21 34/77/16 23/78/16 22/79/21 

v 0.752471 0.873645 -0.148471
vt 45.2154 -13.94
vn 0.556897 0.830582 -4.82601e-16
vt 43.9576 -12.4017
vt 39.3701 -12.4017
vt 39.3701 -13.94
f 40/80/22 39/81/21 22/82/21 21/83/22 

v -0.752471 0.873645 -0.148471
vt -9.74524 5.50251
vn -4.00197e-16 0.830582 -0.556897
vt -11.003 7.04085
vt -67.7371 7.04085
vt -68.9949 5.50251
f 41/84/23 37/85/20 39/86/20 40/87/23 

vt -43.9576 51.9776
vt -45.2154 50.4393
vn -0.556897 0.830582 -4.10015e-15
v -0.752471 0.873645 4.40759e-14
vt -39.3701 50.4393
vt -39.3701 51.9776
f 37/88/19 41/89/24 42/90/24 38/91/19 

vt -45.2154 47.883
v -0.785414 0.852634 -0.181414
vt -46.5124 46.3447
vn -0.518302 0.855198 -1.19228e-14
v -0.785414 0.852634 4.32987e-14
vt -39.3701 46.3447
vt -39.3701 47.883
f 41/92/24 43/93/25 44/94/25 42/95/24 

vt -8.44825 0.00679918
vn -2.05126e-16 0.855198 -0.518302
vt -9.74524 1.54513
vt -68.9949 1.54513
v 0.785414 0.852634 -0.181414
vt -70.2919 0.00679918
f 43/96/26 41/97/23 40/98/23 45/99/26 

vt 46.5124 -20.042
vn 0.518302 0.855198 -4.24782e-16
vt 45.2154 -18.5036
vt 39.3701 -18.5036
vt 39.3701 -20.042
f 45/100/27 40/101/22 21/102/22 20/103/27 

v 0.819285 0.833152 -0.215285
vt 47.8459 -26.1035
vn 0.47862 0.878022 -3.78483e-15
vt 46.5124 -24.5652
vt 39.3701 -24.5652
vt 39.3701 -26.1035
f 46/104/28 45/105/27 20/106/27 19/107/28 

v -0.819285 0.833152 -0.215285
vt -7.11477 -5.49054
vn 9.73477e-18 0.878022 -0.47862
vt -8.44825 -3.9522
vt -70.2919 -3.9522
vt -71.6254 -5.49054
f 47/108/29 43/109/26 45/110/26 46/111/29 

vt -46.5124 43.6897
vt -47.8459 42.1514
vn -0.47862 0.878022 -9.82863e-15
v -0.819285 0.833152 4.29656e-14
vt -39.3701 42.1514
vt -39.3701 43.6897
f 43/112/25 47/113/30 48/114/30 44/115/25 

vt -47.8459 39.4064
v -0.854012 0.815241 -0.250012
vt -49.2131 37.8681
vn -0.437936 0.899006 -5.01032e-15
v -0.854012 0.815241 4.26326e-14
vt -39.3701 37.8681
vt -39.3701 39.4064
f 47/116/30 49/117/31 50/118/31 48/119/30 

vt -5.74758 -10.978
vn 1.88575e-16 0.899006 -0.437936
vt -7.11477 -9.43965
vt -71.6254 -9.43965
v 0.854012 0.815241 -0.250012
vt -72.9926 -10.978
f 49/120/32 47/121/29 46/122/29 51/123/32 

vt 49.2131 -32.112
vn 0.437936 0.899006 -5.45393e-15
vt 47.8459 -30.5736
vt 39.3701 -30.5736
vt 39.3701 -32.112
f 51/124/33 46/125/28 19/126/28 18/127/33 

v 0.889522 0.798937 -0.285522
vt 50.6111 -38.0547
vn 0.396334 0.918106 -2.38329e-15
vt 49.2131 -36.5164
vt 39.3701 -36.5164
vt 39.3701 -38.0547
f 52/128/34 51/129/33 18/130/33 17/131/34 

v -0.889522 0.798937 -0.285522
vt -4.34955 -16.444
vn 4.54939e-16 0.918106 -0.396334
vt -5.74758 -14.9057
vt -72.9926 -14.9057
vt -74.3906 -16.444
f 53/132/35 49/133/32 51/134/32 52/135/35 

vt -49.2131 35.0422
vt -50.6111 33.5039
vn -0.396334 0.918106 -5.9471e-15
v -0.889522 0.798937 4.22995e-14
vt -39.3701 33.5039
vt -39.3701 35.0422
f 49/136/31 53/137/36 54/138/36 50/139/31 

vt -50.6111 30.6062
v -0.92574 0.784276 -0.32174
vt -52.037 29.0678
vn -0.353901 0.935283 -4.88713e-15
v -0.92574 0.784276 4.18554e-14
vt -39.3701 29.0678
vt -39.3701 30.6062
f 53/140/36 55/141/37 56/142/37 54/143/36 

vt -2.92361 -21.8772
vn 7.08159e-16 0.935283 -0.353901
vt -4.34955 -20.3389
vt -74.3906 -20.3389
v 0.92574 0.784276 -0.32174
vt -75.8166 -21.8772
f 55/144/38 53/145/35 52/146/35 57/147/38 

vt 52.037 -43.9194
vn 0.353901 0.935283 -2.27286e-15
vt 50.6111 -42.381
vt 39.3701 -42.381
vt 39.3701 -43.9194
f 57/148/39 52/149/34 17/150/34 16/151/39 

v 0.962592 0.771288 -0.358592
vt 53.4879 -49.6936
vn 0.310727 0.950499 -5.32375e-15
vt 52.037 -48.1553
vt 39.3701 -48.1553
vt 39.3701 -49.6936
f 58/152/40 57/153/39 16/154/39 15/155/40 

v -0.962592 0.771288 -0.358592
vt -1.47274 -27.2662
vn 7.84786e-16 0.950499 -0.310727
vt -2.92361 -25.7279
vt -75.8166 -25.7279
vt -77.2674 -27.2662
f 59/156/41 55/157/38 57/158/38 58/159/41 

vt -52.037 26.1076
vt -53.4879 24.5693
vn -0.310727 0.950499 -1.09127e-15
v -0.962592 0.771288 4.15223e-14
vt -39.3701 24.5693
vt -39.3701 26.1076
f 55/160/37 59/161/42 60/162/42 56/163/37 

vt -53.4879 21.5559
v -1 0.76 -0.396
vt -54.9606 20.0176
vn -0.28889 0.957362 4.77437e-16
v -1 0.76 4.07452e-14
vt -39.3701 20.0176
vt -39.3701 21.5559
f 59/164/42 61/165/43 62/166/43 60/167/42 

vt -9.87646e-13 -32.5997
vn 7.84359e-16 0.957362 -0.28889
vt -1.47274 -31.0613
vt -77.2674 -31.0613
v 1 0.76 -0.396
vt -78.7402 -32.5997
f 61/168/44 59/169/41 58/170/41 63/171/44 

vt 54.9606 -55.3653
vn 0.28889 0.957362 -6.68146e-15
vt 53.4879 -53.8269
vt 39.3701 -53.8269
vt 39.3701 -55.3653
f 63/172/45 58/173/40 15/174/40 14/175/45 

v 1 0.712 -0.396
vt 54.9606 67.4016
vn 1 -1.99921e-30 -2.91681e-14
vt 54.9606 69.2913
vt 39.3701 69.2913
v 1 0.712 1.44329e-15
vt 39.3701 67.4016
f 64/176/46 63/177/46 14/178/46 65/179/46 

vt -78.7402 67.4016
vn 3.60956e-16 5.65491e-32 -1
v -1 0.712 -0.396
vt -1.11703e-12 67.4016
vt -1.11703e-12 69.2913
f 64/180/47 66/181/47 61/182/47 63/18/47 

vt -1.08418e-12 54.9606
vn -7.8167e-16 -1 2.3765e-16
vt -78.7402 54.9606
vt -78.7402 39.3701
v 0.964 0.712 1.44329e-15
vt -77.3228 39.3701
v 0.964 0.712 -0.36
vt -77.3228 53.5433
v -0.964 0.712 -0.36
vt -1.41732 53.5433
v -0.964 0.712 4.11893e-14
vt -1.41732 39.3701
v -1 0.712 4.07452e-14
vt -8.56809e-13 39.3701
f 66/183/48 64/184/48 65/185/48 67/186/48 68/187/48 69/188/48 70/189/48 71/190/48 

v 0.68 0.676 4.26326e-14
vt -66.1417 65.9843
vn -4.23272e-14 -3.26312e-14 -1
v 0.964 0.676 1.44329e-15
vt -77.3228 65.9843
vt -77.3228 67.4016
v 1 -0.979829 7.83817e-14
vt -78.7402 0.794118
v 0.68 -0.979829 8.70415e-14
vt -66.1417 0.794118
v 0.68 -0.839829 3.86358e-14
vt -66.1417 6.30593
v 0.68 0.120171 3.86358e-14
vt -66.1417 44.1012
f 72/191/49 73/192/49 67/193/49 65/180/49 74/194/49 75/195/49 76/196/49 77/197/49 

v -0.964 0.676 -0.36
vn -2.50027e-16 -1 -6.68436e-16
v 0.964 0.676 -0.36
vt -66.1417 39.3701
v 0.68 0.676 -0.24
vt -66.1417 48.8189
v -0.68 0.676 -0.24
vt -12.5984 48.8189
v -0.68 0.676 4.26326e-14
vt -12.5984 39.3701
v -0.964 0.676 4.11893e-14
f 78/188/50 79/187/50 73/186/50 72/198/50 80/199/50 81/200/50 82/201/50 83/189/50 

vn 3.74435e-16 7.50859e-31 -1
vt -1.41732 65.9843
vt -1.41732 67.4016
f 79/192/51 78/202/51 69/203/51 68/193/51 

vt -53.5433 67.4016
vn -1 0 -1.60425e-14
vt -53.5433 65.9843
vt -39.3701 65.9843
vt -39.3701 67.4016
f 69/204/52 78/205/52 83/206/52 70/207/52 

vn -4.44907e-14 -2.25254e-14 -1
vt -12.5984 65.9843
v -0.68 0.120171 3.86358e-14
vt -12.5984 44.1012
v -0.68 -0.839829 3.86358e-14
vt -12.5984 6.30593
v -0.68 -0.979829 8.70415e-14
vt -12.5984 0.794118
v -1 -0.979829 8.84848e-14
vt -3.57059e-12 0.794118
vt -2.6611e-12 67.4016
f 70/203/53 83/202/53 82/208/53 84/209/53 85/210/53 86/211/53 87/212/53 71/213/53 

vn -1 1.03904e-14 -2.40637e-14
vt -48.8189 65.9843
v -0.68 0.120171 -0.24
vt -48.8189 44.1012
vt -39.3701 44.1012
f 82/206/54 81/214/54 88/215/54 84/216/54 

vn 0 0 -1
v 0.68 0.120171 -0.24
f 88/209/55 81/208/55 80/191/55 89/197/55 

vt 39.3701 65.9843
vn 1 1.03904e-14 -4.81274e-14
vt 39.3701 44.1012
vt 48.8189 44.1012
vt 48.8189 65.9843
f 72/217/56 77/218/56 89/219/56 80/220/56 

vt -12.5984 34.6457
vn -5.12694e-30 -1 2.82534e-14
vt -66.1417 34.6457
f 6/221/57 84/201/57 88/200/57 89/199/57 77/198/57 7/222/57 

vt 39.3701 6.30593
vn 1 0 -0
vt 34.6457 44.1012
vt 34.6457 6.30593
v -0.68 -0.839829 0.0937915
vt 35.6775 6.30593
f 85/223/58 84/218/58 6/224/58 5/225/58 90/226/58 

vt 12.5984 35.6775
vn -1.28661e-14 1 1.01099e-12
v -1 -0.839829 0.0937915
vt 1.90012e-12 35.6775
vt 1.67275e-12 34.6457
vt 12.5984 34.6457
f 90/227/59 91/228/59 4/229/59 5/230/59 

v -1 -0.839829 1
vt 1.13378e-12 8.76355e-14
vn 4.89732e-16 1 1.38973e-14
v 1 -0.839829 1
vt 78.7402 8.76355e-14
vt 66.1417 34.6457
v 0.68 -0.839829 0.0937915
vt 66.1417 35.6775
vt 66.1417 39.3701
v 0.52 -0.839829 4.18554e-14
vt 59.8425 39.3701
v -0.52 -0.839829 3.57492e-14
vt 18.8976 39.3701
vt 12.5984 39.3701
vt 1.58853e-12 34.6457
f 92/231/60 93/232/60 1/14/60 8/233/60 94/234/60 76/235/60 95/236/60 96/237/60 85/238/60 90/227/60 5/230/60 4/239/60 

v -1 -1 1
vt 1.13687e-12 1.25914e-12
vn 0 0 1
v 1 -1 1
vt 78.7402 1.25884e-12
vt 1.13687e-12 6.30593
f 97/240/61 98/241/61 93/1/61 92/242/61 

v -1 -1 0.0937915
vt -1.13687e-12 35.6775
vn 1.22029e-14 -1 8.35205e-15
v 1 -1 0.0937915
vt -78.7402 35.6775
vt -78.7402 -2.48875e-27
vt -1.13687e-12 -1.05164e-26
f 99/243/62 100/244/62 98/245/62 97/246/62 

v 1 -1 3.95239e-14
vn -2.44096e-14 1 2.03877e-17
v -1 -1 3.93019e-14
vt 1.13687e-12 39.3701
vt 1.13687e-12 35.6775
vt 78.7402 35.6775
f 101/9/63 102/247/63 99/248/63 100/249/63 

vn 4.3886e-15 -1 -5.47467e-14
vt -1.13687e-12 39.3701
v -1 -1 -1
vt -2.27374e-12 78.7402
v 1 -1 -1
f 101/185/64 102/250/64 103/251/64 104/17/64 

vt -66.1417 35.6775
vn -1.29718e-14 -1 -1.01314e-12
v 1 -0.839829 0.0937915
vt -78.7402 34.6457
f 94/252/65 105/244/65 1/253/65 8/222/65 

vn -1 0 -0
vt -39.3701 6.30593
vt -35.6775 6.30593
vt -34.6457 6.30593
vt -34.6457 44.1012
f 77/216/66 76/254/66 94/255/66 8/256/66 7/257/66 

vt -59.8425 6.30593
vn 2.70717e-14 -3.45486e-13 -1
v 0.52 -0.979829 9.02611e-14
vt -59.8425 0.794118
v 0.52 -0.909829 4.32987e-14
vt -59.8425 3.55002
f 95/258/67 76/196/67 75/195/67 106/259/67 107/260/67 

vt -66.1417 -34.8642
vn 1.19003e-13 0.940137 -0.340798
v 0.68 -0.979829 -0.386209
vt -66.1417 -51.0374
v 0.52 -0.979829 -0.386209
vt -59.8425 -51.0374
v 0.52 -0.909829 -0.193104
vt -59.8425 -42.9508
vt -59.8425 -34.8642
f 76/261/68 108/262/68 109/263/68 110/264/68 95/265/68 

vt 54.5751 0.794118
vn 1 -1.03343e-26 -2.99076e-14
vt 39.3701 0.794118
f 108/266/69 76/223/69 75/267/69

vt 59.8425 54.5751
vn -1.03046e-14 1 -2.85214e-13
v 0.52 -0.979829 -0.193104
vt 59.8425 46.9726
vt 66.1417 54.5751
f 109/268/70 111/269/70 106/236/70 75/235/70 108/270/70 

vt -54.5751 0.794118
vn -1 -2.15299e-27 2.99076e-14
vt -46.9726 0.794118
vt -46.9726 3.55002
f 109/271/71 111/272/71 110/273/71

vn -1.94761e-14 1 -2.05638e-13
v 1 -0.979829 -1
v -1 -0.979829 -1
vt 2.2892e-12 78.7402
vt 1.83446e-12 39.3701
v -0.68 -0.979829 -0.386209
vt 12.5984 54.5751
v -0.52 -0.979829 -0.386209
vt 18.8976 54.5751
v -0.52 -0.979829 -0.193104
vt 18.8976 46.9726
f 75/235/72 74/9/72 112/2/72 113/274/72 87/275/72 86/238/72 114/276/72 115/277/72 116/278/72 111/269/72 109/268/72 108/270/72 

vn -1 1.03454e-26 2.99076e-14
vt -39.3701 0.794118
f 85/254/73 114/271/73 86/279/73

vt -12.5984 -51.0374
vn -1.23271e-13 0.940137 -0.340798
vt -12.5984 -34.8642
vt -18.8976 -34.8642
v -0.52 -0.909829 -0.193104
vt -18.8976 -42.9508
vt -18.8976 -51.0374
f 114/280/74 85/281/74 96/282/74 117/283/74 115/284/74 

v -0.52 -0.979829 3.39728e-14
vt -18.8976 0.794118
vn -1.57166e-13 -1.66297e-13 -1
vt -18.8976 6.30593
v -0.52 -0.909829 4.32987e-14
vt -18.8976 3.55002
f 118/285/75 86/211/75 85/210/75 96/286/75 119/287/75 

vn 3.30007e-13 1 -1.69826e-13
f 114/276/76 86/238/76 118/237/76 116/278/76 115/277/76 

vn -1 -4.12521e-14 -1.49538e-14
vt -39.3701 3.55002
f 117/273/77 116/272/77 118/279/77 119/288/77 

vn -1.77556e-27 7.21911e-14 -1
f 111/259/78 116/285/78 117/287/78 110/260/78 

vn -7.06158e-14 1 -1.65573e-13
f 118/237/79 106/236/79 111/269/79 116/278/79 

vn 2.70717e-14 -2.68139e-13 -1
f 106/259/80 118/285/80 119/287/80 107/260/80 

vn 0 1 -3.73845e-14
f 107/236/81 110/269/81 117/278/81 119/237/81 

f 95/254/66 110/273/66 107/288/66

f 107/288/66 110/273/66 111/272/66 106/279/66 

vn 2.95012e-15 -6.44564e-14 -1
f 107/260/82 119/287/82 96/286/82 95/258/82 

vt 39.3701 3.55002
vt 46.9726 3.55002
f 96/223/58 119/289/58 117/290/58

vn 1 8.25042e-14 2.99076e-14
vt 46.9726 0.794118
f 115/266/83 117/290/83 116/291/83

vt 53.5433 65.9843
vt 53.5433 67.4016
f 79/292/58 68/293/58 67/179/58 73/217/58 

vt -54.9606 69.2913
vn -1 6.01593e-14 -7.29203e-15
vt -54.9606 67.4016
vt -39.3701 69.2913
f 61/294/84 66/295/84 71/207/84 62/296/84 

vt 7.00118e-12 69.2913
vn 2.06706e-13 -3.15753e-13 -1
vt 7.91067e-12 78.7402
vt -15.5906 78.7402
vt -14.5151 77.6402
vt -14.1481 77.2977
vt -13.3904 76.5906
vt -12.2189 75.5936
vt -11.003 74.6513
vt -9.74524 73.7656
vt -8.44825 72.9383
vt -7.11477 72.1713
vt -5.74758 71.4662
vt -4.34955 70.8243
vt -2.92361 70.2471
vt -1.47274 69.7357
f 62/297/85 12/298/85 11/299/85 28/300/85 31/301/85 30/302/85 36/303/85 38/304/85 42/305/85 44/306/85 48/307/85 50/308/85 54/309/85 56/310/85 60/311/85 

