# Alias OBJ Model File
# Exported from SketchUp, (c) 2000-2012 Trimble Navigation Limited
# File units = meters

mtllib Wall_Door.mtl

g Mesh1 Group1 Model

usemtl Stone_Masonry_Multi
v 1 1 1
vt 196.85 196.85
vn -7.07473e-15 -2.07869e-15 1
v 0.72 -0.88 1
vt 169.291 11.811
v 1 -1 1
vt 196.85 9.11271e-13
f 1/1/1 2/2/1 3/3/1

v 0.72 0.184171 1
vt 169.291 116.552
f 2/2/1 1/1/1 4/4/1

v -0.72 0.184171 1
vt 27.5591 116.552
f 4/4/1 1/1/1 5/5/1

v -1 1 1
vt -3.21722e-27 196.85
f 6/6/1 5/5/1 1/1/1

v -0.72 -0.88 1
vt 27.5591 11.811
f 6/6/1 7/7/1 5/5/1

v -1 -1 1
vt -2.57377e-26 9.09495e-13
f 8/8/1 7/7/1 6/6/1

f 7/7/1 8/8/1 3/3/1

vt -196.85 -4.20208e-27
vn 9.02389e-18 -1 4.62023e-15
vt -8.20718e-30 3.63798e-12
v -1 -1 -1
vt -1.42109e-12 196.85
v 1 -1 -1
vt -196.85 196.85
f 3/9/2 8/10/2 9/11/2 10/12/2 

vt -3.63798e-12 9.09495e-13
vn -1 8.66622e-18 -7.26948e-15
vt -4.54747e-13 196.85
v -1 1 0.88
vt -11.811 196.85
v -1 -0.935829 0.88
vt -11.811 6.316
v -1 -0.935829 -1
vt -196.85 6.316
vt -196.85 -8.59237e-32
f 8/13/3 6/14/3 11/15/3 12/16/3 13/17/3 9/18/3 

v 0.72 1 0.88
vt -169.291 196.85
vn -7.51451e-32 -6.28456e-17 -1
v 0.792 1 0.88
vt -176.378 196.85
v 1 1 0.88
v 1 -0.935829 0.88
v 0 -0.935829 0.88
vt -98.4252 6.316
vt -5.68434e-14 6.316
vt -8.52651e-14 196.85
v -0.792 1 0.88
vt -20.4724 196.85
v -0.72 1 0.88
vt -27.5591 196.85
v -0.72 0.844171 0.88
vt -27.5591 181.513
v -0.792 0.844171 0.88
vt -20.4724 181.513
v -0.792 0.384171 0.88
vt -20.4724 136.237
v -0.72 0.384171 0.88
vt -27.5591 136.237
v -0.72 0.184171 0.88
vt -27.5591 116.552
v -0.72 -0.88 0.88
vt -27.5591 11.811
v 0.72 -0.88 0.88
vt -169.291 11.811
v 0.72 0.184171 0.88
vt -169.291 116.552
v 0.72 0.384171 0.88
vt -169.291 136.237
v 0.792 0.384171 0.88
vt -176.378 136.237
v 0.792 0.844171 0.88
vt -176.378 181.513
v 0.72 0.844171 0.88
vt -169.291 181.513
f 14/19/4 15/20/4 16/12/4 17/17/4 18/21/4 12/22/4 11/23/4 19/24/4 20/25/4 21/26/4 22/27/4 23/28/4 24/29/4 25/30/4 26/31/4 27/32/4 28/33/4 29/34/4 30/35/4 31/36/4 32/37/4 

vt 196.85 -5.80453e-15
vn 1 3.85109e-17 7.14776e-15
v 1 -0.935829 -1
vt 196.85 6.316
vt 11.811 6.316
vt 11.811 196.85
vt 1.86179e-12 196.85
vt 1.40704e-12 9.0369e-13
f 10/38/5 33/39/5 17/40/5 16/41/5 1/42/5 3/43/5 

vt 1.40687e-12 9.30108e-12
vn 1.4366e-14 -4.72495e-14 -1
vt 1.40687e-12 6.316
vt -196.85 9.30286e-12
f 9/44/6 13/45/6 33/17/6 10/46/6 

vt 98.4252 11.811
vn -2.48157e-17 1 -1.9667e-14
vt 196.85 11.811
vt 1.42124e-12 196.85
vt 5.70002e-14 11.811
f 18/47/7 17/48/7 33/1/7 13/49/7 12/50/7 

vn 0 0 -1
f 20/25/8 14/19/8 32/37/8 31/36/8 30/35/8 29/34/8 28/33/8 25/30/8 24/29/8 23/28/8 22/27/8 21/26/8 

v 0.72 0.844171 0.616
vt 37.7953 181.513
vn 1 0 -0
v 0.72 1 0.616
vt 37.7953 196.85
vt 11.811 181.513
f 34/51/9 35/52/9 14/41/9 32/53/9 

v -0.72 0.844171 0.616
v -0.72 1 0.616
f 36/26/8 37/25/8 35/19/8 34/37/8 

vt -37.7953 196.85
vn -1 0 -0
vt -37.7953 181.513
vt -11.811 181.513
f 37/54/10 36/55/10 21/56/10 20/15/10 

v -0.792 0.844171 0.544
vt 20.4724 44.8819
vn 0 1 -0
vt 20.4724 11.811
vt 27.5591 37.7953
vt 169.291 37.7953
vt 176.378 11.811
v 0.792 0.844171 0.544
vt 176.378 44.8819
f 38/57/11 22/58/11 21/7/11 36/59/11 34/60/11 32/2/11 31/61/11 39/62/11 

vt -44.8819 181.513
v -0.792 0.384171 0.544
vt -44.8819 136.237
vt -11.811 136.237
f 38/63/10 40/64/10 23/65/10 22/56/10 

v 0.792 0.384171 0.544
f 40/28/8 38/27/8 39/36/8 41/35/8 

vt 44.8819 136.237
vt 44.8819 181.513
vt 11.811 136.237
f 41/66/9 39/67/9 31/53/9 30/68/9 

v -0.72 0.384171 0.616
vt -27.5591 37.7953
vn 0 -1 -0
vt -20.4724 11.811
vt -20.4724 44.8819
vt -176.378 44.8819
vt -176.378 11.811
v 0.72 0.384171 0.616
vt -169.291 37.7953
f 42/69/12 24/31/12 23/70/12 40/71/12 41/72/12 30/73/12 29/32/12 43/74/12 

vt -37.7953 136.237
vn -1 -5.05338e-14 3.82832e-14
v -0.72 0.184171 0.616
vt -37.7953 116.552
vt -11.811 116.552
f 42/75/13 44/76/13 25/77/13 24/65/13 

v 0.72 0.184171 0.616
f 44/30/8 42/29/8 43/34/8 45/33/8 

vt 37.7953 116.552
vn 1 8.66294e-15 -6.56283e-15
vt 37.7953 136.237
vt 11.811 116.552
f 45/78/14 43/79/14 29/68/14 28/80/14 

vn -6.2878e-33 -1 -3.28142e-15
f 25/31/15 44/69/15 45/74/15 28/32/15 

vt -169.291 0
vt -27.5591 0
f 28/32/12 4/81/12 5/82/12 25/31/12 

vt 0 11.811
vt 0 116.552
vt -11.811 11.811
f 2/83/10 4/84/10 28/77/10 27/85/10 

vt 169.291 0
vt 27.5591 0
f 2/86/11 27/2/11 26/7/11 7/87/11 

vt 11.811 11.811
f 5/84/9 7/83/9 26/88/9 25/80/9 

f 7/7/1 3/3/1 2/2/1

