# Alias OBJ Model File
# Exported from SketchUp, (c) 2000-2012 Trimble Navigation Limited
# File units = meters

mtllib Wall_Door_2.mtl

g Mesh1 Model

usemtl Stone_Masonry_Multi
v 0.88 -1 1
vt 0.275534 -0.459875
vn 5.16838e-17 9.13887e-17 1
v 1 -1 1
vt 0.313107 -0.459875
v 1 -0.175829 1
vt 0.313107 -0.0808596
v -1 -0.175829 1
vt -0.313107 -0.0808596
v -1 -1 1
vt -0.313107 -0.459875
f 1/1/1 2/2/1 3/3/1 4/4/1 5/5/1 

vn -2.10557e-14 -1 9.13887e-17
vt -0.275534 -0.459875
v 0.88 -1 0.88
vt -0.275534 -0.40469
v 1 -1 0.88
vt -0.313107 -0.40469
f 2/5/2 1/6/2 6/7/2 7/8/2 

vn 1.34398e-15 -1 9.13887e-17
v -1 -1 0.88
vt 0.313107 -0.40469
f 1/6/3 5/2/3 8/9/3 6/7/3 

vn -1 1.13178e-32 5.16838e-17
v -1 -0.175829 0.88
vt 0.275534 -0.0808596
f 5/2/4 4/3/4 9/10/4 8/1/4 

vn 6.85816e-15 1 -9.13887e-17
v 1 -0.175829 0.88
f 4/5/5 3/2/5 10/9/5 9/8/5 

vn 1 1.17374e-13 -5.16838e-17
vt -0.275534 -0.0808596
f 3/4/6 2/5/6 7/6/6 10/11/6 

vn -5.16838e-17 -9.13887e-17 -1
f 7/5/7 6/6/7 8/2/7 9/3/7 10/4/7 

